<?xml version="1.0" encoding="UTF-8" standalone="no"?>
<!DOCTYPE svg PUBLIC "-//W3C//DTD SVG 1.1//EN" "http://www.w3.org/Graphics/SVG/1.1/DTD/svg11.dtd">
<svg width="100%" height="100%" viewBox="0 0 2004 1712" version="1.1" xmlns="http://www.w3.org/2000/svg" xmlns:xlink="http://www.w3.org/1999/xlink" xml:space="preserve" xmlns:serif="http://www.serif.com/" style="fill-rule:evenodd;clip-rule:evenodd;stroke-linecap:square;stroke-linejoin:round;stroke-miterlimit:1.5;">
    <g transform="matrix(1,0,0,1,-798.196,-309.473)">
        <g transform="matrix(8.39185,0,0,8.39185,-7002.75,-6415.64)">
            <path d="M948.34,931.881C950.54,931.881 952.348,932.206 953.765,932.856C955.181,933.506 956.44,934.265 957.54,935.131C958.206,935.631 958.715,935.69 959.065,935.306C959.415,934.923 959.656,934.015 959.79,932.581L960.94,932.581C960.873,933.881 960.823,935.456 960.79,937.306C960.756,939.156 960.74,941.615 960.74,944.681L959.59,944.681C959.423,943.148 959.206,941.84 958.94,940.756C958.673,939.673 958.306,938.715 957.84,937.881C957.373,937.048 956.706,936.298 955.84,935.631C955.006,934.798 954.04,934.181 952.94,933.781C951.84,933.381 950.69,933.181 949.49,933.181C947.69,933.181 946.156,933.656 944.89,934.606C943.623,935.556 942.598,936.848 941.815,938.481C941.031,940.115 940.456,941.956 940.09,944.006C939.723,946.056 939.54,948.181 939.54,950.381C939.54,952.615 939.731,954.756 940.115,956.806C940.498,958.856 941.098,960.681 941.915,962.281C942.731,963.881 943.79,965.148 945.09,966.081C946.39,967.015 947.923,967.481 949.69,967.481C950.79,967.481 951.898,967.273 953.015,966.856C954.131,966.44 955.09,965.831 955.89,965.031C957.19,964.031 958.073,962.79 958.54,961.306C959.006,959.823 959.356,957.848 959.59,955.381L960.74,955.381C960.74,958.548 960.756,961.106 960.79,963.056C960.823,965.006 960.873,966.648 960.94,967.981L959.79,967.981C959.656,966.548 959.431,965.648 959.115,965.281C958.798,964.915 958.273,964.965 957.54,965.431C956.306,966.298 954.998,967.056 953.615,967.706C952.231,968.356 950.456,968.681 948.29,968.681C944.756,968.681 941.665,967.965 939.015,966.531C936.365,965.098 934.306,963.031 932.84,960.331C931.373,957.631 930.64,954.381 930.64,950.581C930.64,946.848 931.398,943.581 932.915,940.781C934.431,937.981 936.515,935.798 939.165,934.231C941.815,932.665 944.873,931.881 948.34,931.881Z" style="fill-rule:nonzero;"/>
            <path d="M981.19,932.581L981.19,933.581C980.056,933.615 979.198,933.74 978.615,933.956C978.031,934.173 977.64,934.573 977.44,935.156C977.24,935.74 977.14,936.648 977.14,937.881L977.14,963.281C977.14,964.315 977.215,965.081 977.365,965.581C977.515,966.081 977.815,966.415 978.265,966.581C978.715,966.748 979.39,966.831 980.29,966.831L982.74,966.831C983.873,966.831 984.94,966.565 985.94,966.031C986.94,965.498 987.84,964.74 988.64,963.756C989.44,962.773 990.106,961.598 990.64,960.231C991.173,958.865 991.573,957.348 991.84,955.681L992.99,955.681C992.89,956.815 992.84,958.281 992.84,960.081C992.84,960.848 992.856,961.965 992.89,963.431C992.923,964.898 993.023,966.415 993.19,967.981C991.49,967.915 989.573,967.873 987.44,967.856C985.306,967.84 983.406,967.831 981.74,967.831L978.54,967.831C977.24,967.831 975.84,967.84 974.34,967.856C972.84,967.873 971.323,967.89 969.79,967.906C968.256,967.923 966.806,967.948 965.44,967.981L965.44,966.981C966.506,966.915 967.306,966.781 967.84,966.581C968.373,966.381 968.731,965.981 968.915,965.381C969.098,964.781 969.19,963.881 969.19,962.681L969.19,937.881C969.19,936.648 969.098,935.74 968.915,935.156C968.731,934.573 968.365,934.173 967.815,933.956C967.265,933.74 966.473,933.615 965.44,933.581L965.44,932.581C966.273,932.615 967.398,932.648 968.815,932.681C970.231,932.715 971.74,932.731 973.34,932.731C974.806,932.731 976.248,932.715 977.665,932.681C979.081,932.648 980.256,932.615 981.19,932.581Z" style="fill-rule:nonzero;"/>
            <path d="M1022.74,932.581C1022.61,934.048 1022.51,935.465 1022.47,936.831C1022.42,938.198 1022.39,939.248 1022.39,939.981C1022.39,940.648 1022.41,941.281 1022.44,941.881C1022.47,942.481 1022.51,942.981 1022.54,943.381L1021.39,943.381C1021.06,940.948 1020.54,939.023 1019.84,937.606C1019.14,936.19 1018.23,935.19 1017.12,934.606C1016,934.023 1014.69,933.731 1013.19,933.731L1011.14,933.731C1010.17,933.731 1009.44,933.815 1008.94,933.981C1008.44,934.148 1008.11,934.481 1007.94,934.981C1007.77,935.481 1007.69,936.248 1007.69,937.281L1007.69,963.281C1007.69,964.315 1007.77,965.081 1007.94,965.581C1008.11,966.081 1008.44,966.415 1008.94,966.581C1009.44,966.748 1010.17,966.831 1011.14,966.831L1013.59,966.831C1015.09,966.831 1016.42,966.506 1017.57,965.856C1018.72,965.206 1019.7,964.098 1020.51,962.531C1021.33,960.965 1021.96,958.848 1022.39,956.181L1023.54,956.181C1023.44,957.248 1023.39,958.648 1023.39,960.381C1023.39,961.148 1023.41,962.231 1023.44,963.631C1023.47,965.031 1023.57,966.481 1023.74,967.981C1022.04,967.915 1020.12,967.873 1017.99,967.856C1015.86,967.84 1013.96,967.831 1012.29,967.831L1009.09,967.831C1007.79,967.831 1006.39,967.84 1004.89,967.856C1003.39,967.873 1001.87,967.89 1000.34,967.906C998.806,967.923 997.356,967.948 995.99,967.981L995.99,966.981C997.056,966.915 997.856,966.781 998.39,966.581C998.923,966.381 999.281,965.981 999.465,965.381C999.648,964.781 999.74,963.881 999.74,962.681L999.74,937.881C999.74,936.648 999.648,935.74 999.465,935.156C999.281,934.573 998.915,934.173 998.365,933.956C997.815,933.74 997.023,933.615 995.99,933.581L995.99,932.581C997.356,932.615 998.806,932.64 1000.34,932.656C1001.87,932.673 1003.39,932.69 1004.89,932.706C1006.39,932.723 1007.79,932.731 1009.09,932.731L1012.29,932.731C1013.82,932.731 1015.57,932.723 1017.51,932.706C1019.47,932.69 1021.21,932.648 1022.74,932.581ZM1014.94,949.681L1014.94,950.681L1006.19,950.681L1006.19,949.681L1014.94,949.681ZM1016.39,943.081C1016.26,944.981 1016.2,946.431 1016.22,947.431C1016.23,948.431 1016.24,949.348 1016.24,950.181C1016.24,951.015 1016.26,951.931 1016.29,952.931C1016.32,953.931 1016.41,955.381 1016.54,957.281L1015.39,957.281C1015.22,956.115 1014.92,955.031 1014.47,954.031C1014.01,953.031 1013.37,952.223 1012.54,951.606C1011.71,950.99 1010.62,950.681 1009.29,950.681L1009.29,949.681C1010.29,949.681 1011.14,949.473 1011.84,949.056C1012.54,948.64 1013.12,948.09 1013.57,947.406C1014.01,946.723 1014.37,945.998 1014.64,945.231C1014.91,944.465 1015.11,943.748 1015.24,943.081L1016.39,943.081Z" style="fill-rule:nonzero;"/>
            <path d="M1070.69,932.581L1070.69,933.581C1069.62,933.615 1068.82,933.74 1068.29,933.956C1067.76,934.173 1067.4,934.573 1067.21,935.156C1067.03,935.74 1066.94,936.648 1066.94,937.881L1066.94,962.681C1066.94,963.881 1067.03,964.781 1067.21,965.381C1067.4,965.981 1067.76,966.381 1068.29,966.581C1068.82,966.781 1069.62,966.915 1070.69,966.981L1070.69,967.981C1069.76,967.915 1068.58,967.873 1067.16,967.856C1065.75,967.84 1064.31,967.831 1062.84,967.831C1061.24,967.831 1059.74,967.84 1058.34,967.856C1056.94,967.873 1055.81,967.915 1054.94,967.981L1054.94,966.981C1056.07,966.915 1056.93,966.781 1057.52,966.581C1058.1,966.381 1058.49,965.981 1058.69,965.381C1058.89,964.781 1058.99,963.881 1058.99,962.681L1058.99,935.631L1059.34,935.631L1046.94,968.031L1046.14,968.031L1032.64,935.831L1032.64,959.781C1032.64,961.615 1032.74,963.023 1032.94,964.006C1033.14,964.99 1033.58,965.69 1034.27,966.106C1034.95,966.523 1036.02,966.815 1037.49,966.981L1037.49,967.981C1036.86,967.915 1036.02,967.873 1034.99,967.856C1033.96,967.84 1032.99,967.831 1032.09,967.831C1031.32,967.831 1030.54,967.84 1029.74,967.856C1028.94,967.873 1028.27,967.915 1027.74,967.981L1027.74,966.981C1028.81,966.815 1029.61,966.531 1030.14,966.131C1030.67,965.731 1031.03,965.073 1031.21,964.156C1031.4,963.24 1031.49,961.981 1031.49,960.381L1031.49,937.881C1031.49,936.648 1031.4,935.74 1031.21,935.156C1031.03,934.573 1030.66,934.173 1030.12,933.956C1029.57,933.74 1028.77,933.615 1027.74,933.581L1027.74,932.581C1028.27,932.615 1028.94,932.648 1029.74,932.681C1030.54,932.715 1031.32,932.731 1032.09,932.731C1033.52,932.731 1034.93,932.715 1036.32,932.681C1037.7,932.648 1038.92,932.615 1039.99,932.581L1050.49,957.931L1049.24,959.081L1059.29,932.731L1062.84,932.731C1064.31,932.731 1065.75,932.715 1067.16,932.681C1068.58,932.648 1069.76,932.615 1070.69,932.581Z" style="fill-rule:nonzero;"/>
            <path d="M1100.79,932.581C1100.66,934.048 1100.57,935.465 1100.52,936.831C1100.46,938.198 1100.44,939.248 1100.44,939.981C1100.44,940.648 1100.46,941.281 1100.49,941.881C1100.52,942.481 1100.56,942.981 1100.59,943.381L1099.44,943.381C1099.11,940.948 1098.59,939.023 1097.89,937.606C1097.19,936.19 1096.28,935.19 1095.16,934.606C1094.05,934.023 1092.74,933.731 1091.24,933.731L1089.19,933.731C1088.22,933.731 1087.49,933.815 1086.99,933.981C1086.49,934.148 1086.16,934.481 1085.99,934.981C1085.82,935.481 1085.74,936.248 1085.74,937.281L1085.74,963.281C1085.74,964.315 1085.82,965.081 1085.99,965.581C1086.16,966.081 1086.49,966.415 1086.99,966.581C1087.49,966.748 1088.22,966.831 1089.19,966.831L1091.64,966.831C1093.14,966.831 1094.46,966.506 1095.62,965.856C1096.77,965.206 1097.75,964.098 1098.57,962.531C1099.38,960.965 1100.01,958.848 1100.44,956.181L1101.59,956.181C1101.49,957.248 1101.44,958.648 1101.44,960.381C1101.44,961.148 1101.46,962.231 1101.49,963.631C1101.52,965.031 1101.62,966.481 1101.79,967.981C1100.09,967.915 1098.17,967.873 1096.04,967.856C1093.91,967.84 1092.01,967.831 1090.34,967.831L1087.14,967.831C1085.84,967.831 1084.44,967.84 1082.94,967.856C1081.44,967.873 1079.92,967.89 1078.39,967.906C1076.86,967.923 1075.41,967.948 1074.04,967.981L1074.04,966.981C1075.11,966.915 1075.91,966.781 1076.44,966.581C1076.97,966.381 1077.33,965.981 1077.52,965.381C1077.7,964.781 1077.79,963.881 1077.79,962.681L1077.79,937.881C1077.79,936.648 1077.7,935.74 1077.52,935.156C1077.33,934.573 1076.96,934.173 1076.41,933.956C1075.87,933.74 1075.07,933.615 1074.04,933.581L1074.04,932.581C1075.41,932.615 1076.86,932.64 1078.39,932.656C1079.92,932.673 1081.44,932.69 1082.94,932.706C1084.44,932.723 1085.84,932.731 1087.14,932.731L1090.34,932.731C1091.87,932.731 1093.62,932.723 1095.57,932.706C1097.52,932.69 1099.26,932.648 1100.79,932.581ZM1092.99,949.681L1092.99,950.681L1084.24,950.681L1084.24,949.681L1092.99,949.681ZM1094.44,943.081C1094.31,944.981 1094.25,946.431 1094.27,947.431C1094.28,948.431 1094.29,949.348 1094.29,950.181C1094.29,951.015 1094.31,951.931 1094.34,952.931C1094.37,953.931 1094.46,955.381 1094.59,957.281L1093.44,957.281C1093.27,956.115 1092.96,955.031 1092.52,954.031C1092.07,953.031 1091.42,952.223 1090.59,951.606C1089.76,950.99 1088.67,950.681 1087.34,950.681L1087.34,949.681C1088.34,949.681 1089.19,949.473 1089.89,949.056C1090.59,948.64 1091.16,948.09 1091.62,947.406C1092.07,946.723 1092.42,945.998 1092.69,945.231C1092.96,944.465 1093.16,943.748 1093.29,943.081L1094.44,943.081Z" style="fill-rule:nonzero;"/>
            <path d="M1138.69,932.581L1138.69,933.581C1137.62,933.715 1136.82,933.99 1136.29,934.406C1135.76,934.823 1135.4,935.481 1135.21,936.381C1135.03,937.281 1134.94,938.548 1134.94,940.181L1134.94,968.081C1134.54,968.048 1134.13,968.031 1133.71,968.031C1133.3,968.031 1132.86,968.048 1132.39,968.081L1110.69,940.581L1110.69,959.781C1110.69,961.615 1110.79,963.023 1110.99,964.006C1111.19,964.99 1111.63,965.69 1112.32,966.106C1113,966.523 1114.07,966.815 1115.54,966.981L1115.54,967.981C1114.91,967.915 1114.07,967.873 1113.04,967.856C1112.01,967.84 1111.04,967.831 1110.14,967.831C1109.37,967.831 1108.59,967.84 1107.79,967.856C1106.99,967.873 1106.32,967.915 1105.79,967.981L1105.79,966.981C1106.86,966.815 1107.66,966.531 1108.19,966.131C1108.72,965.731 1109.08,965.073 1109.27,964.156C1109.45,963.24 1109.54,961.981 1109.54,960.381L1109.54,937.881C1109.54,936.648 1109.45,935.74 1109.27,935.156C1109.08,934.573 1108.71,934.173 1108.16,933.956C1107.62,933.74 1106.82,933.615 1105.79,933.581L1105.79,932.581C1106.32,932.615 1106.99,932.648 1107.79,932.681C1108.59,932.715 1109.37,932.731 1110.14,932.731C1110.94,932.731 1111.71,932.715 1112.44,932.681C1113.17,932.648 1113.84,932.615 1114.44,932.581L1133.79,956.431L1133.79,940.781C1133.79,938.948 1133.69,937.54 1133.49,936.556C1133.29,935.573 1132.85,934.865 1132.16,934.431C1131.48,933.998 1130.41,933.715 1128.94,933.581L1128.94,932.581C1129.57,932.615 1130.41,932.648 1131.44,932.681C1132.47,932.715 1133.44,932.731 1134.34,932.731C1135.14,932.731 1135.93,932.715 1136.71,932.681C1137.5,932.648 1138.16,932.615 1138.69,932.581Z" style="fill-rule:nonzero;"/>
            <path d="M1154.34,931.931C1156.31,931.931 1157.82,932.14 1158.89,932.556C1159.96,932.973 1160.87,933.415 1161.64,933.881C1162.04,934.115 1162.37,934.29 1162.62,934.406C1162.87,934.523 1163.11,934.581 1163.34,934.581C1163.67,934.581 1163.91,934.398 1164.07,934.031C1164.21,933.665 1164.34,933.115 1164.44,932.381L1165.59,932.381C1165.56,933.015 1165.52,933.773 1165.46,934.656C1165.41,935.54 1165.38,936.698 1165.37,938.131C1165.35,939.565 1165.34,941.448 1165.34,943.781L1164.19,943.781C1164.06,942.048 1163.66,940.365 1162.99,938.731C1162.32,937.098 1161.38,935.756 1160.16,934.706C1158.95,933.656 1157.46,933.131 1155.69,933.131C1154.09,933.131 1152.77,933.581 1151.74,934.481C1150.71,935.381 1150.19,936.631 1150.19,938.231C1150.19,939.565 1150.52,940.706 1151.19,941.656C1151.86,942.606 1152.83,943.531 1154.12,944.431C1155.4,945.331 1156.96,946.415 1158.79,947.681C1160.39,948.715 1161.82,949.748 1163.09,950.781C1164.36,951.815 1165.37,952.981 1166.14,954.281C1166.91,955.581 1167.29,957.131 1167.29,958.931C1167.29,961.131 1166.71,962.948 1165.57,964.381C1164.41,965.815 1162.91,966.89 1161.04,967.606C1159.17,968.323 1157.12,968.681 1154.89,968.681C1152.82,968.681 1151.17,968.481 1149.94,968.081C1148.71,967.681 1147.67,967.265 1146.84,966.831C1146.11,966.365 1145.54,966.131 1145.14,966.131C1144.81,966.131 1144.57,966.315 1144.41,966.681C1144.27,967.048 1144.14,967.598 1144.04,968.331L1142.89,968.331C1142.96,967.531 1143,966.598 1143.02,965.531C1143.03,964.465 1143.05,963.073 1143.07,961.356C1143.08,959.64 1143.09,957.465 1143.09,954.831L1144.24,954.831C1144.37,957.031 1144.75,959.09 1145.37,961.006C1145.98,962.923 1146.93,964.465 1148.21,965.631C1149.5,966.798 1151.21,967.381 1153.34,967.381C1154.51,967.381 1155.55,967.173 1156.46,966.756C1157.38,966.34 1158.12,965.715 1158.69,964.881C1159.26,964.048 1159.54,963.015 1159.54,961.781C1159.54,960.381 1159.21,959.165 1158.57,958.131C1157.91,957.098 1157.03,956.131 1155.91,955.231C1154.8,954.331 1153.51,953.415 1152.04,952.481C1150.47,951.448 1149.01,950.415 1147.64,949.381C1146.27,948.348 1145.18,947.165 1144.37,945.831C1143.55,944.498 1143.14,942.915 1143.14,941.081C1143.14,938.981 1143.66,937.256 1144.71,935.906C1145.77,934.556 1147.15,933.556 1148.87,932.906C1150.58,932.256 1152.41,931.931 1154.34,931.931Z" style="fill-rule:nonzero;"/>
        </g>
        <g transform="matrix(3.95716,0,0,3.95716,-2847.44,-3403.66)">
            <path d="M965.337,1325.27C967.537,1325.27 969.345,1325.6 970.762,1326.25C972.179,1326.9 973.437,1327.66 974.537,1328.52C975.204,1329.02 975.712,1329.08 976.062,1328.7C976.412,1328.32 976.654,1327.41 976.787,1325.97L977.937,1325.97C977.87,1327.21 977.82,1328.71 977.787,1330.47C977.754,1332.24 977.737,1334.57 977.737,1337.47L976.587,1337.47C976.354,1336.04 976.137,1334.9 975.937,1334.05C975.737,1333.2 975.495,1332.47 975.212,1331.87C974.929,1331.27 974.554,1330.67 974.087,1330.07C973.054,1328.71 971.754,1327.72 970.187,1327.1C968.62,1326.48 966.97,1326.17 965.237,1326.17C963.604,1326.17 962.129,1326.58 960.812,1327.4C959.495,1328.22 958.362,1329.39 957.412,1330.92C956.462,1332.46 955.729,1334.31 955.212,1336.47C954.695,1338.64 954.437,1341.07 954.437,1343.77C954.437,1346.57 954.72,1349.05 955.287,1351.2C955.854,1353.35 956.645,1355.16 957.662,1356.62C958.679,1358.09 959.879,1359.2 961.262,1359.95C962.645,1360.7 964.137,1361.07 965.737,1361.07C967.237,1361.07 968.804,1360.77 970.437,1360.17C972.07,1359.57 973.354,1358.61 974.287,1357.27C975.02,1356.31 975.529,1355.26 975.812,1354.12C976.095,1352.99 976.354,1351.41 976.587,1349.37L977.737,1349.37C977.737,1352.41 977.754,1354.85 977.787,1356.7C977.82,1358.55 977.87,1360.11 977.937,1361.37L976.787,1361.37C976.654,1359.94 976.429,1359.04 976.112,1358.67C975.795,1358.31 975.27,1358.36 974.537,1358.82C973.304,1359.69 971.995,1360.45 970.612,1361.1C969.229,1361.75 967.454,1362.07 965.287,1362.07C962.12,1362.07 959.345,1361.36 956.962,1359.92C954.579,1358.49 952.729,1356.42 951.412,1353.72C950.095,1351.02 949.437,1347.77 949.437,1343.97C949.437,1340.24 950.12,1336.97 951.487,1334.17C952.854,1331.37 954.729,1329.19 957.112,1327.62C959.495,1326.06 962.237,1325.27 965.337,1325.27Z" style="fill-rule:nonzero;"/>
            <path d="M998.187,1334.92C999.087,1334.92 999.879,1335.11 1000.56,1335.47C1001.25,1335.84 1001.78,1336.32 1002.16,1336.9C1002.55,1337.48 1002.74,1338.14 1002.74,1338.87C1002.74,1339.71 1002.48,1340.44 1001.96,1341.07C1001.45,1341.71 1000.75,1342.02 999.887,1342.02C999.187,1342.02 998.57,1341.8 998.037,1341.35C997.504,1340.9 997.237,1340.26 997.237,1339.42C997.237,1338.79 997.412,1338.25 997.762,1337.8C998.112,1337.35 998.504,1336.99 998.937,1336.72C998.704,1336.39 998.354,1336.22 997.887,1336.22C996.854,1336.22 995.904,1336.53 995.037,1337.15C994.17,1337.77 993.437,1338.56 992.837,1339.52C992.237,1340.49 991.77,1341.52 991.437,1342.6C991.104,1343.68 990.937,1344.69 990.937,1345.62L990.937,1356.22C990.937,1357.86 991.412,1358.95 992.362,1359.5C993.312,1360.05 994.604,1360.32 996.237,1360.32L996.237,1361.37C995.47,1361.34 994.387,1361.3 992.987,1361.25C991.587,1361.2 990.104,1361.17 988.537,1361.17C987.404,1361.17 986.279,1361.2 985.162,1361.25C984.045,1361.3 983.204,1361.34 982.637,1361.37L982.637,1360.32C984.004,1360.32 984.979,1360.07 985.562,1359.57C986.145,1359.07 986.437,1358.12 986.437,1356.72L986.437,1341.07C986.437,1339.57 986.17,1338.47 985.637,1337.75C985.104,1337.03 984.104,1336.67 982.637,1336.67L982.637,1335.62C983.704,1335.72 984.737,1335.77 985.737,1335.77C986.704,1335.77 987.629,1335.72 988.512,1335.6C989.395,1335.48 990.204,1335.31 990.937,1335.07L990.937,1341.32C991.304,1340.36 991.829,1339.38 992.512,1338.4C993.195,1337.42 994.02,1336.59 994.987,1335.92C995.954,1335.26 997.02,1334.92 998.187,1334.92Z" style="fill-rule:nonzero;"/>
            <path d="M1016.04,1334.92C1018.97,1334.92 1021.26,1335.82 1022.91,1337.6C1024.56,1339.38 1025.39,1342.16 1025.39,1345.92L1007.74,1345.92L1007.69,1344.97L1020.59,1344.97C1020.65,1343.34 1020.52,1341.83 1020.19,1340.45C1019.85,1339.07 1019.33,1337.96 1018.61,1337.12C1017.89,1336.29 1016.97,1335.87 1015.84,1335.87C1014.3,1335.87 1012.95,1336.64 1011.76,1338.17C1010.58,1339.71 1009.87,1342.14 1009.64,1345.47L1009.79,1345.67C1009.72,1346.17 1009.67,1346.72 1009.64,1347.32C1009.6,1347.92 1009.59,1348.52 1009.59,1349.12C1009.59,1351.39 1009.95,1353.34 1010.69,1354.97C1011.42,1356.61 1012.38,1357.85 1013.56,1358.7C1014.75,1359.55 1015.97,1359.97 1017.24,1359.97C1018.24,1359.97 1019.19,1359.82 1020.09,1359.5C1020.99,1359.18 1021.82,1358.66 1022.59,1357.92C1023.35,1357.19 1024.02,1356.21 1024.59,1354.97L1025.59,1355.37C1025.22,1356.47 1024.62,1357.54 1023.79,1358.57C1022.95,1359.61 1021.9,1360.45 1020.64,1361.1C1019.37,1361.75 1017.9,1362.07 1016.24,1362.07C1013.84,1362.07 1011.78,1361.52 1010.06,1360.42C1008.35,1359.32 1007.03,1357.8 1006.11,1355.85C1005.2,1353.9 1004.74,1351.66 1004.74,1349.12C1004.74,1346.19 1005.2,1343.67 1006.14,1341.55C1007.07,1339.43 1008.39,1337.8 1010.09,1336.65C1011.79,1335.5 1013.77,1334.92 1016.04,1334.92Z" style="fill-rule:nonzero;"/>
            <path d="M1036.29,1361.72C1034.92,1361.72 1033.74,1361.47 1032.74,1360.95C1031.74,1360.43 1030.98,1359.71 1030.46,1358.77C1029.94,1357.84 1029.69,1356.76 1029.69,1355.52C1029.69,1354.06 1030.03,1352.86 1030.71,1351.92C1031.39,1350.99 1032.27,1350.24 1033.34,1349.67C1034.4,1349.11 1035.53,1348.63 1036.71,1348.25C1037.89,1347.87 1039.02,1347.5 1040.09,1347.15C1041.15,1346.8 1042.03,1346.39 1042.71,1345.92C1043.39,1345.46 1043.74,1344.84 1043.74,1344.07L1043.74,1340.97C1043.74,1339.57 1043.53,1338.51 1043.11,1337.77C1042.69,1337.04 1042.14,1336.55 1041.44,1336.3C1040.74,1336.05 1039.95,1335.92 1039.09,1335.92C1038.25,1335.92 1037.36,1336.04 1036.41,1336.27C1035.46,1336.51 1034.7,1336.99 1034.14,1337.72C1034.77,1337.86 1035.32,1338.19 1035.79,1338.72C1036.25,1339.26 1036.49,1339.94 1036.49,1340.77C1036.49,1341.61 1036.22,1342.27 1035.69,1342.75C1035.15,1343.23 1034.47,1343.47 1033.64,1343.47C1032.67,1343.47 1031.96,1343.17 1031.51,1342.55C1031.06,1341.93 1030.84,1341.24 1030.84,1340.47C1030.84,1339.61 1031.05,1338.91 1031.49,1338.37C1031.92,1337.84 1032.47,1337.34 1033.14,1336.87C1033.9,1336.34 1034.89,1335.88 1036.11,1335.5C1037.33,1335.12 1038.7,1334.92 1040.24,1334.92C1041.6,1334.92 1042.77,1335.08 1043.74,1335.4C1044.7,1335.72 1045.5,1336.17 1046.14,1336.77C1047,1337.57 1047.57,1338.55 1047.84,1339.7C1048.1,1340.85 1048.24,1342.22 1048.24,1343.82L1048.24,1357.72C1048.24,1358.56 1048.36,1359.16 1048.61,1359.52C1048.86,1359.89 1049.25,1360.07 1049.79,1360.07C1050.15,1360.07 1050.5,1359.99 1050.84,1359.82C1051.17,1359.66 1051.57,1359.39 1052.04,1359.02L1052.59,1359.87C1051.89,1360.41 1051.22,1360.85 1050.59,1361.2C1049.95,1361.55 1049.1,1361.72 1048.04,1361.72C1047.07,1361.72 1046.27,1361.56 1045.64,1361.22C1045,1360.89 1044.53,1360.4 1044.21,1359.75C1043.89,1359.1 1043.74,1358.27 1043.74,1357.27C1042.84,1358.77 1041.76,1359.89 1040.51,1360.62C1039.26,1361.36 1037.85,1361.72 1036.29,1361.72ZM1038.09,1359.72C1039.19,1359.72 1040.21,1359.41 1041.16,1358.77C1042.11,1358.14 1042.97,1357.19 1043.74,1355.92L1043.74,1346.12C1043.34,1346.69 1042.75,1347.17 1041.99,1347.55C1041.22,1347.93 1040.39,1348.32 1039.49,1348.7C1038.59,1349.08 1037.73,1349.53 1036.91,1350.05C1036.1,1350.57 1035.42,1351.24 1034.89,1352.07C1034.35,1352.91 1034.09,1353.99 1034.09,1355.32C1034.09,1356.66 1034.44,1357.72 1035.16,1358.52C1035.88,1359.32 1036.85,1359.72 1038.09,1359.72Z" style="fill-rule:nonzero;"/>
            <path d="M1062.14,1327.32L1062.14,1335.67L1069.54,1335.67L1069.54,1336.67L1062.14,1336.67L1062.14,1356.02C1062.14,1357.59 1062.42,1358.69 1062.99,1359.32C1063.55,1359.96 1064.34,1360.27 1065.34,1360.27C1066.34,1360.27 1067.2,1359.87 1067.94,1359.05C1068.67,1358.23 1069.3,1356.86 1069.84,1354.92L1070.84,1355.17C1070.5,1357.11 1069.85,1358.74 1068.86,1360.07C1067.88,1361.41 1066.37,1362.07 1064.34,1362.07C1063.2,1362.07 1062.27,1361.93 1061.54,1361.65C1060.8,1361.37 1060.15,1360.96 1059.59,1360.42C1058.85,1359.66 1058.35,1358.74 1058.06,1357.67C1057.78,1356.61 1057.64,1355.19 1057.64,1353.42L1057.64,1336.67L1052.84,1336.67L1052.84,1335.67L1057.64,1335.67L1057.64,1328.02C1058.47,1327.99 1059.27,1327.92 1060.04,1327.82C1060.8,1327.72 1061.5,1327.56 1062.14,1327.32Z" style="fill-rule:nonzero;"/>
            <path d="M1077.49,1323.12C1078.35,1323.12 1079.1,1323.44 1079.74,1324.07C1080.37,1324.71 1080.69,1325.46 1080.69,1326.32C1080.69,1327.19 1080.37,1327.94 1079.74,1328.57C1079.1,1329.21 1078.35,1329.52 1077.49,1329.52C1076.62,1329.52 1075.87,1329.21 1075.24,1328.57C1074.6,1327.94 1074.29,1327.19 1074.29,1326.32C1074.29,1325.46 1074.6,1324.71 1075.24,1324.07C1075.87,1323.44 1076.62,1323.12 1077.49,1323.12ZM1080.09,1335.07L1080.09,1356.72C1080.09,1358.12 1080.38,1359.07 1080.96,1359.57C1081.55,1360.07 1082.52,1360.32 1083.89,1360.32L1083.89,1361.37C1083.32,1361.34 1082.46,1361.3 1081.31,1361.25C1080.16,1361.2 1079,1361.17 1077.84,1361.17C1076.7,1361.17 1075.55,1361.2 1074.39,1361.25C1073.22,1361.3 1072.35,1361.34 1071.79,1361.37L1071.79,1360.32C1073.15,1360.32 1074.13,1360.07 1074.71,1359.57C1075.3,1359.07 1075.59,1358.12 1075.59,1356.72L1075.59,1341.07C1075.59,1339.57 1075.32,1338.47 1074.79,1337.75C1074.25,1337.03 1073.25,1336.67 1071.79,1336.67L1071.79,1335.62C1072.85,1335.72 1073.89,1335.77 1074.89,1335.77C1075.85,1335.77 1076.78,1335.72 1077.66,1335.6C1078.55,1335.48 1079.35,1335.31 1080.09,1335.07Z" style="fill-rule:nonzero;"/>
            <path d="M1109.29,1335.62L1109.29,1336.62C1108.65,1336.69 1108.07,1336.97 1107.54,1337.47C1107,1337.97 1106.5,1338.86 1106.04,1340.12L1097.84,1361.62L1096.99,1361.62L1087.79,1339.47C1087.25,1338.17 1086.73,1337.38 1086.21,1337.1C1085.69,1336.82 1085.25,1336.67 1084.89,1336.67L1084.89,1335.62C1085.55,1335.66 1086.25,1335.7 1086.96,1335.75C1087.68,1335.8 1088.45,1335.82 1089.29,1335.82C1090.32,1335.82 1091.41,1335.81 1092.56,1335.77C1093.71,1335.74 1094.79,1335.69 1095.79,1335.62L1095.79,1336.67C1094.95,1336.67 1094.21,1336.73 1093.56,1336.85C1092.91,1336.97 1092.5,1337.29 1092.31,1337.82C1092.13,1338.36 1092.29,1339.27 1092.79,1340.57L1099.04,1356.02L1098.74,1356.27L1104.44,1341.32C1104.87,1340.22 1105.05,1339.35 1104.96,1338.7C1104.88,1338.05 1104.55,1337.56 1103.96,1337.22C1103.38,1336.89 1102.49,1336.69 1101.29,1336.62L1101.29,1335.62C1101.89,1335.66 1102.4,1335.68 1102.84,1335.7C1103.27,1335.72 1103.69,1335.73 1104.11,1335.75C1104.53,1335.77 1104.99,1335.77 1105.49,1335.77C1106.25,1335.77 1106.94,1335.76 1107.56,1335.72C1108.18,1335.69 1108.75,1335.66 1109.29,1335.62Z" style="fill-rule:nonzero;"/>
            <path d="M1122.59,1334.92C1125.52,1334.92 1127.81,1335.82 1129.46,1337.6C1131.11,1339.38 1131.94,1342.16 1131.94,1345.92L1114.29,1345.92L1114.24,1344.97L1127.14,1344.97C1127.2,1343.34 1127.07,1341.83 1126.74,1340.45C1126.4,1339.07 1125.88,1337.96 1125.16,1337.12C1124.44,1336.29 1123.52,1335.87 1122.39,1335.87C1120.85,1335.87 1119.5,1336.64 1118.31,1338.17C1117.13,1339.71 1116.42,1342.14 1116.19,1345.47L1116.34,1345.67C1116.27,1346.17 1116.22,1346.72 1116.19,1347.32C1116.15,1347.92 1116.14,1348.52 1116.14,1349.12C1116.14,1351.39 1116.5,1353.34 1117.24,1354.97C1117.97,1356.61 1118.93,1357.85 1120.11,1358.7C1121.3,1359.55 1122.52,1359.97 1123.79,1359.97C1124.79,1359.97 1125.74,1359.82 1126.64,1359.5C1127.54,1359.18 1128.37,1358.66 1129.14,1357.92C1129.9,1357.19 1130.57,1356.21 1131.14,1354.97L1132.14,1355.37C1131.77,1356.47 1131.17,1357.54 1130.34,1358.57C1129.5,1359.61 1128.45,1360.45 1127.19,1361.1C1125.92,1361.75 1124.45,1362.07 1122.79,1362.07C1120.39,1362.07 1118.33,1361.52 1116.61,1360.42C1114.89,1359.32 1113.58,1357.8 1112.66,1355.85C1111.75,1353.9 1111.29,1351.66 1111.29,1349.12C1111.29,1346.19 1111.75,1343.67 1112.69,1341.55C1113.62,1339.43 1114.94,1337.8 1116.64,1336.65C1118.34,1335.5 1120.32,1334.92 1122.59,1334.92Z" style="fill-rule:nonzero;"/>
            <path d="M1165.29,1325.27C1167.49,1325.27 1169.3,1325.6 1170.71,1326.25C1172.13,1326.9 1173.39,1327.66 1174.49,1328.52C1175.15,1329.02 1175.66,1329.08 1176.01,1328.7C1176.36,1328.32 1176.6,1327.41 1176.74,1325.97L1177.89,1325.97C1177.82,1327.21 1177.77,1328.71 1177.74,1330.47C1177.7,1332.24 1177.69,1334.57 1177.69,1337.47L1176.54,1337.47C1176.3,1336.04 1176.09,1334.9 1175.89,1334.05C1175.69,1333.2 1175.44,1332.47 1175.16,1331.87C1174.88,1331.27 1174.5,1330.67 1174.04,1330.07C1173,1328.71 1171.7,1327.72 1170.14,1327.1C1168.57,1326.48 1166.92,1326.17 1165.19,1326.17C1163.55,1326.17 1162.08,1326.58 1160.76,1327.4C1159.44,1328.22 1158.31,1329.39 1157.36,1330.92C1156.41,1332.46 1155.68,1334.31 1155.16,1336.47C1154.64,1338.64 1154.39,1341.07 1154.39,1343.77C1154.39,1346.57 1154.67,1349.05 1155.24,1351.2C1155.8,1353.35 1156.6,1355.16 1157.61,1356.62C1158.63,1358.09 1159.83,1359.2 1161.21,1359.95C1162.6,1360.7 1164.09,1361.07 1165.69,1361.07C1167.19,1361.07 1168.75,1360.77 1170.39,1360.17C1172.02,1359.57 1173.3,1358.61 1174.24,1357.27C1174.97,1356.31 1175.48,1355.26 1175.76,1354.12C1176.05,1352.99 1176.3,1351.41 1176.54,1349.37L1177.69,1349.37C1177.69,1352.41 1177.7,1354.85 1177.74,1356.7C1177.77,1358.55 1177.82,1360.11 1177.89,1361.37L1176.74,1361.37C1176.6,1359.94 1176.38,1359.04 1176.06,1358.67C1175.75,1358.31 1175.22,1358.36 1174.49,1358.82C1173.25,1359.69 1171.94,1360.45 1170.56,1361.1C1169.18,1361.75 1167.4,1362.07 1165.24,1362.07C1162.07,1362.07 1159.3,1361.36 1156.91,1359.92C1154.53,1358.49 1152.68,1356.42 1151.36,1353.72C1150.05,1351.02 1149.39,1347.77 1149.39,1343.97C1149.39,1340.24 1150.07,1336.97 1151.44,1334.17C1152.8,1331.37 1154.68,1329.19 1157.06,1327.62C1159.44,1326.06 1162.19,1325.27 1165.29,1325.27Z" style="fill-rule:nonzero;"/>
            <path d="M1194.84,1334.92C1196.97,1334.92 1198.89,1335.39 1200.59,1336.32C1202.29,1337.26 1203.64,1338.72 1204.66,1340.72C1205.68,1342.72 1206.19,1345.32 1206.19,1348.52C1206.19,1351.72 1205.68,1354.32 1204.66,1356.3C1203.64,1358.28 1202.29,1359.74 1200.59,1360.67C1198.89,1361.61 1196.97,1362.07 1194.84,1362.07C1192.74,1362.07 1190.83,1361.61 1189.11,1360.67C1187.39,1359.74 1186.03,1358.28 1185.01,1356.3C1184,1354.32 1183.49,1351.72 1183.49,1348.52C1183.49,1345.32 1184,1342.72 1185.01,1340.72C1186.03,1338.72 1187.39,1337.26 1189.11,1336.32C1190.83,1335.39 1192.74,1334.92 1194.84,1334.92ZM1194.84,1335.92C1192.94,1335.92 1191.38,1336.91 1190.16,1338.87C1188.94,1340.84 1188.34,1344.06 1188.34,1348.52C1188.34,1352.99 1188.94,1356.2 1190.16,1358.15C1191.38,1360.1 1192.94,1361.07 1194.84,1361.07C1196.74,1361.07 1198.3,1360.1 1199.51,1358.15C1200.73,1356.2 1201.34,1352.99 1201.34,1348.52C1201.34,1344.06 1200.73,1340.84 1199.51,1338.87C1198.3,1336.91 1196.74,1335.92 1194.84,1335.92Z" style="fill-rule:nonzero;"/>
            <path d="M1232.69,1335.07L1232.69,1355.97C1232.69,1357.47 1232.96,1358.58 1233.51,1359.3C1234.06,1360.02 1235.05,1360.37 1236.49,1360.37L1236.49,1361.42C1235.45,1361.32 1234.42,1361.27 1233.39,1361.27C1232.42,1361.27 1231.5,1361.32 1230.61,1361.42C1229.73,1361.52 1228.92,1361.71 1228.19,1361.97L1228.19,1356.07C1227.35,1358.24 1226.18,1359.78 1224.66,1360.7C1223.14,1361.62 1221.59,1362.07 1219.99,1362.07C1218.82,1362.07 1217.8,1361.91 1216.94,1361.57C1216.07,1361.24 1215.35,1360.77 1214.79,1360.17C1214.15,1359.51 1213.72,1358.64 1213.49,1357.57C1213.25,1356.51 1213.14,1355.19 1213.14,1353.62L1213.14,1341.07C1213.14,1339.57 1212.87,1338.47 1212.34,1337.75C1211.8,1337.03 1210.8,1336.67 1209.34,1336.67L1209.34,1335.62C1210.4,1335.72 1211.44,1335.77 1212.44,1335.77C1213.4,1335.77 1214.33,1335.72 1215.21,1335.6C1216.1,1335.48 1216.9,1335.31 1217.64,1335.07L1217.64,1354.72C1217.64,1355.76 1217.7,1356.71 1217.84,1357.57C1217.97,1358.44 1218.3,1359.14 1218.84,1359.67C1219.37,1360.21 1220.24,1360.47 1221.44,1360.47C1222.74,1360.47 1223.89,1360.07 1224.91,1359.27C1225.93,1358.47 1226.73,1357.39 1227.31,1356.02C1227.89,1354.66 1228.19,1353.12 1228.19,1351.42L1228.19,1341.07C1228.19,1339.57 1227.92,1338.47 1227.39,1337.75C1226.85,1337.03 1225.85,1336.67 1224.39,1336.67L1224.39,1335.62C1225.45,1335.72 1226.49,1335.77 1227.49,1335.77C1228.45,1335.77 1229.38,1335.72 1230.26,1335.6C1231.14,1335.48 1231.95,1335.31 1232.69,1335.07Z" style="fill-rule:nonzero;"/>
            <path d="M1255.84,1334.92C1257.1,1334.92 1258.16,1335.09 1259.01,1335.42C1259.86,1335.76 1260.57,1336.22 1261.14,1336.82C1261.77,1337.49 1262.22,1338.32 1262.49,1339.32C1262.75,1340.32 1262.89,1341.67 1262.89,1343.37L1262.89,1356.72C1262.89,1358.12 1263.18,1359.07 1263.76,1359.57C1264.35,1360.07 1265.32,1360.32 1266.69,1360.32L1266.69,1361.37C1266.12,1361.34 1265.25,1361.3 1264.09,1361.25C1262.92,1361.2 1261.79,1361.17 1260.69,1361.17C1259.59,1361.17 1258.51,1361.2 1257.46,1361.25C1256.41,1361.3 1255.62,1361.34 1255.09,1361.37L1255.09,1360.32C1256.29,1360.32 1257.14,1360.07 1257.64,1359.57C1258.14,1359.07 1258.39,1358.12 1258.39,1356.72L1258.39,1342.27C1258.39,1341.24 1258.3,1340.29 1258.14,1339.42C1257.97,1338.56 1257.6,1337.86 1257.01,1337.32C1256.43,1336.79 1255.54,1336.52 1254.34,1336.52C1252.94,1336.52 1251.71,1336.92 1250.66,1337.72C1249.61,1338.52 1248.8,1339.62 1248.21,1341C1247.63,1342.38 1247.34,1343.92 1247.34,1345.62L1247.34,1356.72C1247.34,1358.12 1247.59,1359.07 1248.09,1359.57C1248.59,1360.07 1249.44,1360.32 1250.64,1360.32L1250.64,1361.37C1250.1,1361.34 1249.31,1361.3 1248.26,1361.25C1247.21,1361.2 1246.14,1361.17 1245.04,1361.17C1243.94,1361.17 1242.8,1361.2 1241.64,1361.25C1240.47,1361.3 1239.6,1361.34 1239.04,1361.37L1239.04,1360.32C1240.4,1360.32 1241.38,1360.07 1241.96,1359.57C1242.55,1359.07 1242.84,1358.12 1242.84,1356.72L1242.84,1341.07C1242.84,1339.57 1242.57,1338.47 1242.04,1337.75C1241.5,1337.03 1240.5,1336.67 1239.04,1336.67L1239.04,1335.62C1240.1,1335.72 1241.14,1335.77 1242.14,1335.77C1243.1,1335.77 1244.03,1335.72 1244.91,1335.6C1245.8,1335.48 1246.6,1335.31 1247.34,1335.07L1247.34,1340.97C1248.2,1338.71 1249.41,1337.13 1250.96,1336.25C1252.51,1335.37 1254.14,1334.92 1255.84,1334.92Z" style="fill-rule:nonzero;"/>
            <path d="M1277.84,1334.92C1279.17,1334.92 1280.3,1335.14 1281.24,1335.57C1282.17,1336.01 1282.85,1336.41 1283.29,1336.77C1284.39,1337.67 1285.05,1337.07 1285.29,1334.97L1286.44,1334.97C1286.37,1335.91 1286.32,1337.02 1286.29,1338.3C1286.25,1339.58 1286.24,1341.31 1286.24,1343.47L1285.09,1343.47C1284.89,1342.24 1284.55,1341.04 1284.06,1339.87C1283.58,1338.71 1282.87,1337.75 1281.94,1337C1281,1336.25 1279.79,1335.87 1278.29,1335.87C1277.12,1335.87 1276.14,1336.2 1275.36,1336.85C1274.58,1337.5 1274.19,1338.46 1274.19,1339.72C1274.19,1340.72 1274.49,1341.58 1275.09,1342.3C1275.69,1343.02 1276.47,1343.68 1277.44,1344.3C1278.4,1344.92 1279.45,1345.59 1280.59,1346.32C1281.85,1347.12 1283,1347.94 1284.04,1348.77C1285.07,1349.61 1285.89,1350.52 1286.51,1351.52C1287.13,1352.52 1287.44,1353.71 1287.44,1355.07C1287.44,1356.61 1287.04,1357.89 1286.24,1358.92C1285.44,1359.96 1284.39,1360.74 1283.11,1361.27C1281.83,1361.81 1280.42,1362.07 1278.89,1362.07C1278.15,1362.07 1277.46,1362.02 1276.81,1361.9C1276.16,1361.78 1275.54,1361.61 1274.94,1361.37C1274.6,1361.21 1274.26,1361.01 1273.91,1360.77C1273.56,1360.54 1273.22,1360.29 1272.89,1360.02C1272.55,1359.76 1272.25,1359.77 1271.99,1360.05C1271.72,1360.33 1271.52,1360.89 1271.39,1361.72L1270.24,1361.72C1270.3,1360.66 1270.35,1359.36 1270.39,1357.82C1270.42,1356.29 1270.44,1354.26 1270.44,1351.72L1271.59,1351.72C1271.82,1353.59 1272.15,1355.22 1272.59,1356.62C1273.02,1358.02 1273.7,1359.12 1274.64,1359.9C1275.57,1360.68 1276.87,1361.07 1278.54,1361.07C1279.2,1361.07 1279.88,1360.92 1280.56,1360.62C1281.25,1360.32 1281.82,1359.82 1282.29,1359.12C1282.75,1358.42 1282.99,1357.49 1282.99,1356.32C1282.99,1354.86 1282.45,1353.66 1281.39,1352.72C1280.32,1351.79 1278.97,1350.81 1277.34,1349.77C1276.14,1349.01 1275.01,1348.24 1273.96,1347.47C1272.91,1346.71 1272.06,1345.84 1271.41,1344.87C1270.76,1343.91 1270.44,1342.74 1270.44,1341.37C1270.44,1339.87 1270.78,1338.65 1271.46,1337.7C1272.14,1336.75 1273.05,1336.05 1274.19,1335.6C1275.32,1335.15 1276.54,1334.92 1277.84,1334.92Z" style="fill-rule:nonzero;"/>
            <path d="M1303.39,1334.92C1306.32,1334.92 1308.61,1335.82 1310.26,1337.6C1311.91,1339.38 1312.74,1342.16 1312.74,1345.92L1295.09,1345.92L1295.04,1344.97L1307.94,1344.97C1308,1343.34 1307.87,1341.83 1307.54,1340.45C1307.2,1339.07 1306.68,1337.96 1305.96,1337.12C1305.25,1336.29 1304.32,1335.87 1303.19,1335.87C1301.65,1335.87 1300.3,1336.64 1299.11,1338.17C1297.93,1339.71 1297.22,1342.14 1296.99,1345.47L1297.14,1345.67C1297.07,1346.17 1297.02,1346.72 1296.99,1347.32C1296.95,1347.92 1296.94,1348.52 1296.94,1349.12C1296.94,1351.39 1297.3,1353.34 1298.04,1354.97C1298.77,1356.61 1299.73,1357.85 1300.91,1358.7C1302.1,1359.55 1303.32,1359.97 1304.59,1359.97C1305.59,1359.97 1306.54,1359.82 1307.44,1359.5C1308.34,1359.18 1309.17,1358.66 1309.94,1357.92C1310.7,1357.19 1311.37,1356.21 1311.94,1354.97L1312.94,1355.37C1312.57,1356.47 1311.97,1357.54 1311.14,1358.57C1310.3,1359.61 1309.25,1360.45 1307.99,1361.1C1306.72,1361.75 1305.25,1362.07 1303.59,1362.07C1301.19,1362.07 1299.13,1361.52 1297.41,1360.42C1295.69,1359.32 1294.38,1357.8 1293.46,1355.85C1292.55,1353.9 1292.09,1351.66 1292.09,1349.12C1292.09,1346.19 1292.55,1343.67 1293.49,1341.55C1294.42,1339.43 1295.74,1337.8 1297.44,1336.65C1299.14,1335.5 1301.12,1334.92 1303.39,1334.92Z" style="fill-rule:nonzero;"/>
            <path d="M1324.49,1322.17L1324.49,1356.72C1324.49,1358.12 1324.78,1359.07 1325.36,1359.57C1325.94,1360.07 1326.92,1360.32 1328.29,1360.32L1328.29,1361.37C1327.72,1361.34 1326.86,1361.3 1325.71,1361.25C1324.56,1361.2 1323.4,1361.17 1322.24,1361.17C1321.1,1361.17 1319.95,1361.2 1318.79,1361.25C1317.62,1361.3 1316.75,1361.34 1316.19,1361.37L1316.19,1360.32C1317.55,1360.32 1318.53,1360.07 1319.11,1359.57C1319.69,1359.07 1319.99,1358.12 1319.99,1356.72L1319.99,1328.17C1319.99,1326.67 1319.72,1325.57 1319.19,1324.85C1318.65,1324.13 1317.65,1323.77 1316.19,1323.77L1316.19,1322.72C1317.25,1322.82 1318.29,1322.87 1319.29,1322.87C1320.25,1322.87 1321.18,1322.82 1322.06,1322.7C1322.94,1322.58 1323.75,1322.41 1324.49,1322.17Z" style="fill-rule:nonzero;"/>
            <path d="M1336.54,1323.12C1337.4,1323.12 1338.15,1323.44 1338.79,1324.07C1339.42,1324.71 1339.74,1325.46 1339.74,1326.32C1339.74,1327.19 1339.42,1327.94 1338.79,1328.57C1338.15,1329.21 1337.4,1329.52 1336.54,1329.52C1335.67,1329.52 1334.92,1329.21 1334.29,1328.57C1333.65,1327.94 1333.34,1327.19 1333.34,1326.32C1333.34,1325.46 1333.65,1324.71 1334.29,1324.07C1334.92,1323.44 1335.67,1323.12 1336.54,1323.12ZM1339.14,1335.07L1339.14,1356.72C1339.14,1358.12 1339.43,1359.07 1340.01,1359.57C1340.6,1360.07 1341.57,1360.32 1342.94,1360.32L1342.94,1361.37C1342.37,1361.34 1341.51,1361.3 1340.36,1361.25C1339.21,1361.2 1338.05,1361.17 1336.89,1361.17C1335.75,1361.17 1334.6,1361.2 1333.44,1361.25C1332.27,1361.3 1331.4,1361.34 1330.84,1361.37L1330.84,1360.32C1332.2,1360.32 1333.18,1360.07 1333.76,1359.57C1334.35,1359.07 1334.64,1358.12 1334.64,1356.72L1334.64,1341.07C1334.64,1339.57 1334.37,1338.47 1333.84,1337.75C1333.3,1337.03 1332.3,1336.67 1330.84,1336.67L1330.84,1335.62C1331.9,1335.72 1332.94,1335.77 1333.94,1335.77C1334.9,1335.77 1335.83,1335.72 1336.71,1335.6C1337.6,1335.48 1338.4,1335.31 1339.14,1335.07Z" style="fill-rule:nonzero;"/>
            <path d="M1362.29,1334.92C1363.55,1334.92 1364.61,1335.09 1365.46,1335.42C1366.31,1335.76 1367.02,1336.22 1367.59,1336.82C1368.22,1337.49 1368.67,1338.32 1368.94,1339.32C1369.2,1340.32 1369.34,1341.67 1369.34,1343.37L1369.34,1356.72C1369.34,1358.12 1369.63,1359.07 1370.21,1359.57C1370.8,1360.07 1371.77,1360.32 1373.14,1360.32L1373.14,1361.37C1372.57,1361.34 1371.7,1361.3 1370.54,1361.25C1369.37,1361.2 1368.24,1361.17 1367.14,1361.17C1366.04,1361.17 1364.96,1361.2 1363.91,1361.25C1362.86,1361.3 1362.07,1361.34 1361.54,1361.37L1361.54,1360.32C1362.74,1360.32 1363.59,1360.07 1364.09,1359.57C1364.59,1359.07 1364.84,1358.12 1364.84,1356.72L1364.84,1342.27C1364.84,1341.24 1364.75,1340.29 1364.59,1339.42C1364.42,1338.56 1364.05,1337.86 1363.46,1337.32C1362.88,1336.79 1361.99,1336.52 1360.79,1336.52C1359.39,1336.52 1358.16,1336.92 1357.11,1337.72C1356.06,1338.52 1355.25,1339.62 1354.66,1341C1354.08,1342.38 1353.79,1343.92 1353.79,1345.62L1353.79,1356.72C1353.79,1358.12 1354.04,1359.07 1354.54,1359.57C1355.04,1360.07 1355.89,1360.32 1357.09,1360.32L1357.09,1361.37C1356.55,1361.34 1355.76,1361.3 1354.71,1361.25C1353.66,1361.2 1352.59,1361.17 1351.49,1361.17C1350.39,1361.17 1349.25,1361.2 1348.09,1361.25C1346.92,1361.3 1346.05,1361.34 1345.49,1361.37L1345.49,1360.32C1346.85,1360.32 1347.83,1360.07 1348.41,1359.57C1349,1359.07 1349.29,1358.12 1349.29,1356.72L1349.29,1341.07C1349.29,1339.57 1349.02,1338.47 1348.49,1337.75C1347.95,1337.03 1346.95,1336.67 1345.49,1336.67L1345.49,1335.62C1346.55,1335.72 1347.59,1335.77 1348.59,1335.77C1349.55,1335.77 1350.48,1335.72 1351.36,1335.6C1352.25,1335.48 1353.05,1335.31 1353.79,1335.07L1353.79,1340.97C1354.65,1338.71 1355.86,1337.13 1357.41,1336.25C1358.96,1335.37 1360.59,1334.92 1362.29,1334.92Z" style="fill-rule:nonzero;"/>
            <path d="M1384.04,1370.77C1382.27,1370.77 1380.6,1370.59 1379.04,1370.22C1377.47,1369.86 1376.21,1369.28 1375.26,1368.5C1374.31,1367.72 1373.84,1366.72 1373.84,1365.52C1373.84,1364.36 1374.3,1363.36 1375.24,1362.52C1376.17,1361.69 1377.44,1361.06 1379.04,1360.62L1379.34,1361.42C1378.6,1361.66 1378.02,1362.12 1377.59,1362.82C1377.15,1363.52 1376.94,1364.31 1376.94,1365.17C1376.94,1366.71 1377.64,1367.88 1379.06,1368.7C1380.48,1369.52 1382.32,1369.92 1384.59,1369.92C1386.09,1369.92 1387.55,1369.73 1388.99,1369.35C1390.42,1368.97 1391.6,1368.32 1392.54,1367.42C1393.47,1366.52 1393.94,1365.34 1393.94,1363.87C1393.94,1362.77 1393.55,1361.87 1392.76,1361.15C1391.98,1360.43 1390.44,1360.07 1388.14,1360.07L1384.44,1360.07C1383.37,1360.07 1382.34,1359.99 1381.34,1359.82C1380.34,1359.66 1379.52,1359.31 1378.89,1358.77C1378.25,1358.24 1377.94,1357.42 1377.94,1356.32C1377.94,1355.19 1378.4,1354.1 1379.34,1353.05C1380.27,1352 1381.99,1350.92 1384.49,1349.82L1385.09,1350.27C1383.95,1350.87 1382.97,1351.48 1382.14,1352.1C1381.3,1352.72 1380.89,1353.44 1380.89,1354.27C1380.89,1355.34 1381.69,1355.87 1383.29,1355.87L1389.54,1355.87C1390.94,1355.87 1392.23,1356.07 1393.41,1356.47C1394.6,1356.87 1395.55,1357.51 1396.29,1358.37C1397.02,1359.24 1397.39,1360.37 1397.39,1361.77C1397.39,1363.34 1396.89,1364.81 1395.89,1366.17C1394.89,1367.54 1393.39,1368.65 1391.41,1369.5C1389.43,1370.35 1386.97,1370.77 1384.04,1370.77ZM1384.29,1350.72C1382.65,1350.72 1381.17,1350.45 1379.84,1349.9C1378.5,1349.35 1377.45,1348.49 1376.69,1347.32C1375.92,1346.16 1375.54,1344.66 1375.54,1342.82C1375.54,1340.99 1375.92,1339.49 1376.69,1338.32C1377.45,1337.16 1378.5,1336.3 1379.84,1335.75C1381.17,1335.2 1382.65,1334.92 1384.29,1334.92C1385.95,1334.92 1387.44,1335.2 1388.76,1335.75C1390.08,1336.3 1391.12,1337.16 1391.89,1338.32C1392.65,1339.49 1393.04,1340.99 1393.04,1342.82C1393.04,1344.66 1392.65,1346.16 1391.89,1347.32C1391.12,1348.49 1390.08,1349.35 1388.76,1349.9C1387.44,1350.45 1385.95,1350.72 1384.29,1350.72ZM1384.29,1349.82C1385.55,1349.82 1386.55,1349.32 1387.26,1348.32C1387.98,1347.32 1388.34,1345.49 1388.34,1342.82C1388.34,1340.16 1387.98,1338.32 1387.26,1337.32C1386.55,1336.32 1385.55,1335.82 1384.29,1335.82C1383.05,1335.82 1382.07,1336.32 1381.34,1337.32C1380.6,1338.32 1380.24,1340.16 1380.24,1342.82C1380.24,1345.49 1380.6,1347.32 1381.34,1348.32C1382.07,1349.32 1383.05,1349.82 1384.29,1349.82ZM1391.49,1339.07L1390.59,1338.72C1391.05,1337.59 1391.85,1336.59 1392.99,1335.72C1394.12,1334.86 1395.3,1334.42 1396.54,1334.42C1397.4,1334.42 1398.1,1334.67 1398.64,1335.15C1399.17,1335.63 1399.44,1336.36 1399.44,1337.32C1399.44,1338.36 1399.16,1339.08 1398.61,1339.5C1398.06,1339.92 1397.5,1340.12 1396.94,1340.12C1396.44,1340.12 1395.97,1339.95 1395.54,1339.6C1395.1,1339.25 1394.85,1338.69 1394.79,1337.92C1394.72,1337.16 1394.95,1336.17 1395.49,1334.97L1396.14,1335.12C1394.74,1335.66 1393.74,1336.22 1393.14,1336.8C1392.54,1337.38 1391.99,1338.14 1391.49,1339.07Z" style="fill-rule:nonzero;"/>
        </g>
        <g transform="matrix(1,0,0,1,-4.54747e-13,829.479)">
            <path d="M807.035,952.734L2792.97,952.734" style="fill:none;stroke:black;stroke-width:12.5px;"/>
        </g>
        <g transform="matrix(1,0,0,1,133.529,-5.85515)">
            <path d="M2126.79,788.275C2126.6,788.609 2126.1,789.426 2125.74,789.848C2125.06,790.645 2124.29,791.369 2123.53,792.025C2120.54,794.569 2117.45,796.137 2117.45,796.137C2113.05,798.338 2110.35,802.919 2110.55,807.837C2110.74,812.19 2113.16,816.091 2116.89,818.194C2117.44,818.841 2121.1,823.356 2123.87,830.541C2124.82,833.011 2123.65,834.859 2122.46,836.142C2120.31,838.464 2117.76,839.708 2117.76,839.708C2115.08,840.958 2112.93,843.115 2111.69,845.798C2101.38,868.143 2110.61,885.355 2110.61,885.355C2110.83,885.785 2111.07,886.203 2111.33,886.606C2111.33,886.606 2130.25,914.697 2128.08,938.59C2127.8,941.736 2126,944.661 2123.54,947.573C2119.97,951.79 2114.96,955.723 2109.05,959.418C2088.96,971.967 2058.95,981.265 2031.52,984.782C2001.28,988.659 1971.98,995.369 1950.02,1003.43C1933.73,1009.42 1921.25,1016.41 1914.35,1023.32C1909.4,1028.26 1900.83,1043.62 1891.05,1064.65C1870.31,1109.21 1841.57,1180.69 1823.22,1219.13C1795.54,1277.12 1805.76,1317.92 1805.76,1323.19C1805.76,1330.09 1811.36,1335.69 1818.26,1335.69C1825.16,1335.69 1830.76,1330.09 1830.76,1323.19C1830.76,1318.47 1821,1281.83 1845.78,1229.9C1864.16,1191.4 1892.95,1119.83 1913.71,1075.2C1921.71,1058.01 1927.98,1045.04 1932.03,1040.99C1937.12,1035.9 1946.62,1031.31 1958.63,1026.9C1979.12,1019.38 2006.48,1013.2 2034.7,1009.58C2071.19,1004.9 2111.48,990.705 2133.37,972.731C2145.16,963.041 2151.97,951.95 2152.98,940.853C2155.53,912.827 2136.62,880.087 2132.89,873.944C2132.46,872.758 2130.71,867.109 2133.09,859.612C2135.4,858.08 2138.22,855.914 2140.8,853.127C2147.42,845.976 2152.5,835.337 2147.2,821.567C2145.32,816.688 2143.38,812.72 2141.48,809.494C2142.03,808.98 2142.58,808.447 2143.11,807.897C2148.88,801.904 2152.61,794.124 2151.7,785.951C2150.99,779.526 2147.73,772.683 2143.7,766.943C2138.64,759.726 2132.7,754.35 2132.7,754.35C2131.17,752.961 2129.33,751.973 2127.32,751.472C2127.32,751.472 2126.12,751.114 2124.73,750.318C2123.91,749.852 2122.75,749.35 2122.35,748.204C2121.97,747.097 2122.51,745.771 2123.31,743.99C2124.44,741.5 2126.26,738.744 2128.87,735.621C2134.55,731.846 2150.7,720.249 2156.91,706.598C2165.5,687.691 2160.14,668.026 2142.54,653.242C2137.03,648.61 2123.61,642.252 2107.51,634.127C2086.65,623.601 2060.6,609.516 2045.74,589.801C2027.55,565.672 2028.71,550.293 2029.55,540.152C2029.86,536.362 2030.05,533.067 2029.79,530.192C2029.22,523.954 2031.34,515.149 2025.81,499.315C2020.5,484.104 2007.85,461.974 1976.8,429.11C1916.42,365.214 1834.12,295.604 1657.24,320.43C1551.99,335.202 1456.14,384.698 1392.48,444.387C1348.84,485.297 1320.33,531.143 1313.08,573.985C1311.92,580.787 1316.51,587.244 1323.32,588.396C1330.12,589.547 1336.57,584.959 1337.73,578.157C1344.21,539.807 1370.51,499.246 1409.57,462.626C1469.95,406.02 1560.9,359.196 1660.71,345.188C1825.58,322.049 1902.35,386.726 1958.62,446.281C1985.9,475.143 1997.55,494.199 2002.21,507.557C2006.66,520.294 2004.43,527.438 2004.89,532.456C2006.01,544.832 1996.52,566.03 2025.77,604.847C2040.11,623.871 2063.1,638.848 2084.39,650.29C2103.15,660.365 2120.39,667.286 2126.46,672.384C2134.45,679.094 2138.05,687.672 2134.15,696.253C2129.24,707.04 2114.23,715.337 2114.23,715.337C2113.07,716.017 2112.03,716.881 2111.14,717.895C2096,735.198 2095.86,748.025 2098.71,756.331C2102.18,766.416 2111.84,771.886 2117.33,774.26C2118.78,775.746 2121.12,778.287 2123.23,781.3C2124.75,783.466 2126.38,785.853 2126.79,788.275Z"/>
        </g>
        <g transform="matrix(0.996781,-0.0801728,0.0801728,0.996781,92.0368,104.777)">
            <path d="M1545.29,912.356C1467.51,946.501 1372.67,1018 1326.79,1087.95C1301.01,1127.26 1290.8,1166.42 1303.61,1199.06C1314.69,1227.28 1343.5,1251.95 1398.05,1267.03C1357.61,1296.91 1321.98,1311.65 1321.98,1311.65C1315.61,1314.31 1312.6,1321.64 1315.26,1328.01C1317.91,1334.37 1325.24,1337.38 1331.61,1334.73C1331.61,1334.73 1379.43,1314.59 1428.95,1274C1559.85,1297.38 1653.14,1235.36 1683.84,1163.74C1697.9,1130.92 1699.11,1095.91 1685.65,1065.1C1661.52,1009.82 1606.64,995.531 1553.98,1006.99C1558.34,983.449 1562.99,957.475 1567.64,930.043C1693.23,876.697 1782.68,755.516 1814.31,646.944C1836.54,570.624 1829.67,500.533 1790.28,461.989C1716.62,389.892 1595.53,424.218 1577.81,661.258C1571.92,740.046 1558.76,831.671 1545.29,912.356ZM1453.37,1252.28C1543.2,1262.21 1611.42,1227.63 1645.87,1180.12C1669.74,1147.2 1677.19,1108.2 1662.74,1075.1C1642.73,1029.27 1594.99,1021.42 1551.63,1033.3C1550.72,1033.55 1549.81,1033.81 1548.9,1034.08C1538.2,1090.42 1530.28,1127.37 1530.28,1127.37C1530.24,1127.55 1530.2,1127.74 1530.15,1127.92C1516.77,1178.84 1486.41,1220.26 1453.37,1252.28ZM1540.21,942.256C1469.56,976.709 1388.32,1039.72 1347.69,1101.66C1327.1,1133.07 1316.64,1163.85 1326.88,1189.93C1337.08,1215.91 1367.05,1235.54 1422.65,1247.3C1457.74,1216.64 1491.88,1174.9 1505.9,1121.85C1506.57,1118.71 1512.78,1089.49 1521.36,1045.03C1489.99,1061 1465.04,1086.9 1461.68,1116.4C1460.9,1123.25 1454.71,1128.19 1447.85,1127.41C1441,1126.63 1436.06,1120.43 1436.84,1113.58C1441.62,1071.55 1480.35,1033.59 1527.04,1015.19C1531.19,993.074 1535.67,968.455 1540.21,942.256ZM1572.59,900.374C1683.26,847.179 1761.74,738.041 1790.31,639.953C1809.5,574.05 1806.8,513.138 1772.8,479.856C1752.14,459.637 1727.67,449.949 1703.71,454.786C1678.92,459.791 1655.51,479.922 1637.1,516.744C1619.97,550.994 1607.52,599.144 1602.74,663.122C1597.18,737.418 1585.22,823.048 1572.59,900.374Z"/>
        </g>
        <g transform="matrix(0.983111,-0.183009,0.183009,0.983111,-289.42,269.692)">
            <path d="M1587.93,738.322C1587.93,738.322 1761.86,685.611 1800,599.735L1800,906.155C1800,906.155 1722.99,931.527 1724.94,859.313C1726.89,787.1 1787.23,830.739 1800,825.509" style="fill:none;stroke:black;stroke-width:25px;stroke-linecap:round;"/>
        </g>
        <g transform="matrix(0.983111,-0.183009,0.183009,0.983111,612.119,294.436)">
            <path d="M706.146,549.005L706.146,781.245C706.146,781.245 626.126,783.197 637.836,734.404C649.546,685.611 706.146,709.449 706.146,709.449" style="fill:none;stroke:black;stroke-width:25px;stroke-linecap:round;"/>
        </g>
    </g>
</svg>
