<?xml version="1.0" encoding="UTF-8" standalone="no"?>
<!DOCTYPE svg PUBLIC "-//W3C//DTD SVG 1.1//EN" "http://www.w3.org/Graphics/SVG/1.1/DTD/svg11.dtd">
<svg width="100%" height="100%" viewBox="0 0 2890 690" version="1.1" xmlns="http://www.w3.org/2000/svg" xmlns:xlink="http://www.w3.org/1999/xlink" xml:space="preserve" xmlns:serif="http://www.serif.com/" style="fill-rule:evenodd;clip-rule:evenodd;stroke-linecap:square;stroke-linejoin:round;stroke-miterlimit:1.5;">
    <g transform="matrix(1,0,0,1,-389.352938,-855.339651)">
        <g transform="matrix(1.07817,0,0,1.07817,50.232203,372.57319)">
            <g transform="matrix(8.391847,0,0,8.391847,-6808.942798,-7275.76903)">
                <path d="M948.34,931.881C950.54,931.881 952.348,932.206 953.765,932.856C955.181,933.506 956.44,934.265 957.54,935.131C958.206,935.631 958.715,935.69 959.065,935.306C959.415,934.923 959.656,934.015 959.79,932.581L960.94,932.581C960.873,933.881 960.823,935.456 960.79,937.306C960.756,939.156 960.74,941.615 960.74,944.681L959.59,944.681C959.423,943.148 959.206,941.84 958.94,940.756C958.673,939.673 958.306,938.715 957.84,937.881C957.373,937.048 956.706,936.298 955.84,935.631C955.006,934.798 954.04,934.181 952.94,933.781C951.84,933.381 950.69,933.181 949.49,933.181C947.69,933.181 946.156,933.656 944.89,934.606C943.623,935.556 942.598,936.848 941.815,938.481C941.031,940.115 940.456,941.956 940.09,944.006C939.723,946.056 939.54,948.181 939.54,950.381C939.54,952.615 939.731,954.756 940.115,956.806C940.498,958.856 941.098,960.681 941.915,962.281C942.731,963.881 943.79,965.148 945.09,966.081C946.39,967.015 947.923,967.481 949.69,967.481C950.79,967.481 951.898,967.273 953.015,966.856C954.131,966.44 955.09,965.831 955.89,965.031C957.19,964.031 958.073,962.79 958.54,961.306C959.006,959.823 959.356,957.848 959.59,955.381L960.74,955.381C960.74,958.548 960.756,961.106 960.79,963.056C960.823,965.006 960.873,966.648 960.94,967.981L959.79,967.981C959.656,966.548 959.431,965.648 959.115,965.281C958.798,964.915 958.273,964.965 957.54,965.431C956.306,966.298 954.998,967.056 953.615,967.706C952.231,968.356 950.456,968.681 948.29,968.681C944.756,968.681 941.665,967.965 939.015,966.531C936.365,965.098 934.306,963.031 932.84,960.331C931.373,957.631 930.64,954.381 930.64,950.581C930.64,946.848 931.398,943.581 932.915,940.781C934.431,937.981 936.515,935.798 939.165,934.231C941.815,932.665 944.873,931.881 948.34,931.881Z" style="fill-rule:nonzero;"/>
                <path d="M981.19,932.581L981.19,933.581C980.056,933.615 979.198,933.74 978.615,933.956C978.031,934.173 977.64,934.573 977.44,935.156C977.24,935.74 977.14,936.648 977.14,937.881L977.14,963.281C977.14,964.315 977.215,965.081 977.365,965.581C977.515,966.081 977.815,966.415 978.265,966.581C978.715,966.748 979.39,966.831 980.29,966.831L982.74,966.831C983.873,966.831 984.94,966.565 985.94,966.031C986.94,965.498 987.84,964.74 988.64,963.756C989.44,962.773 990.106,961.598 990.64,960.231C991.173,958.865 991.573,957.348 991.84,955.681L992.99,955.681C992.89,956.815 992.84,958.281 992.84,960.081C992.84,960.848 992.856,961.965 992.89,963.431C992.923,964.898 993.023,966.415 993.19,967.981C991.49,967.915 989.573,967.873 987.44,967.856C985.306,967.84 983.406,967.831 981.74,967.831L978.54,967.831C977.24,967.831 975.84,967.84 974.34,967.856C972.84,967.873 971.323,967.89 969.79,967.906C968.256,967.923 966.806,967.948 965.44,967.981L965.44,966.981C966.506,966.915 967.306,966.781 967.84,966.581C968.373,966.381 968.731,965.981 968.915,965.381C969.098,964.781 969.19,963.881 969.19,962.681L969.19,937.881C969.19,936.648 969.098,935.74 968.915,935.156C968.731,934.573 968.365,934.173 967.815,933.956C967.265,933.74 966.473,933.615 965.44,933.581L965.44,932.581C966.273,932.615 967.398,932.648 968.815,932.681C970.231,932.715 971.74,932.731 973.34,932.731C974.806,932.731 976.248,932.715 977.665,932.681C979.081,932.648 980.256,932.615 981.19,932.581Z" style="fill-rule:nonzero;"/>
                <path d="M1022.74,932.581C1022.606,934.048 1022.515,935.465 1022.465,936.831C1022.415,938.198 1022.39,939.248 1022.39,939.981C1022.39,940.648 1022.406,941.281 1022.44,941.881C1022.473,942.481 1022.506,942.981 1022.54,943.381L1021.39,943.381C1021.056,940.948 1020.54,939.023 1019.84,937.606C1019.14,936.19 1018.231,935.19 1017.115,934.606C1015.998,934.023 1014.69,933.731 1013.19,933.731L1011.14,933.731C1010.173,933.731 1009.44,933.815 1008.94,933.981C1008.44,934.148 1008.106,934.481 1007.94,934.981C1007.773,935.481 1007.69,936.248 1007.69,937.281L1007.69,963.281C1007.69,964.315 1007.773,965.081 1007.94,965.581C1008.106,966.081 1008.44,966.415 1008.94,966.581C1009.44,966.748 1010.173,966.831 1011.14,966.831L1013.59,966.831C1015.09,966.831 1016.415,966.506 1017.565,965.856C1018.715,965.206 1019.698,964.098 1020.515,962.531C1021.331,960.965 1021.956,958.848 1022.39,956.181L1023.54,956.181C1023.44,957.248 1023.39,958.648 1023.39,960.381C1023.39,961.148 1023.406,962.231 1023.44,963.631C1023.473,965.031 1023.573,966.481 1023.74,967.981C1022.04,967.915 1020.123,967.873 1017.99,967.856C1015.856,967.84 1013.956,967.831 1012.29,967.831L1009.09,967.831C1007.79,967.831 1006.39,967.84 1004.89,967.856C1003.39,967.873 1001.873,967.89 1000.34,967.906C998.806,967.923 997.356,967.948 995.99,967.981L995.99,966.981C997.056,966.915 997.856,966.781 998.39,966.581C998.923,966.381 999.281,965.981 999.465,965.381C999.648,964.781 999.74,963.881 999.74,962.681L999.74,937.881C999.74,936.648 999.648,935.74 999.465,935.156C999.281,934.573 998.915,934.173 998.365,933.956C997.815,933.74 997.023,933.615 995.99,933.581L995.99,932.581C997.356,932.615 998.806,932.64 1000.34,932.656C1001.873,932.673 1003.39,932.69 1004.89,932.706C1006.39,932.723 1007.79,932.731 1009.09,932.731L1012.29,932.731C1013.823,932.731 1015.565,932.723 1017.515,932.706C1019.465,932.69 1021.206,932.648 1022.74,932.581ZM1014.94,949.681L1014.94,950.681L1006.19,950.681L1006.19,949.681L1014.94,949.681ZM1016.39,943.081C1016.256,944.981 1016.198,946.431 1016.215,947.431C1016.231,948.431 1016.24,949.348 1016.24,950.181C1016.24,951.015 1016.256,951.931 1016.29,952.931C1016.323,953.931 1016.406,955.381 1016.54,957.281L1015.39,957.281C1015.223,956.115 1014.915,955.031 1014.465,954.031C1014.015,953.031 1013.373,952.223 1012.54,951.606C1011.706,950.99 1010.623,950.681 1009.29,950.681L1009.29,949.681C1010.29,949.681 1011.14,949.473 1011.84,949.056C1012.54,948.64 1013.115,948.09 1013.565,947.406C1014.015,946.723 1014.373,945.998 1014.64,945.231C1014.906,944.465 1015.106,943.748 1015.24,943.081L1016.39,943.081Z" style="fill-rule:nonzero;"/>
                <path d="M1070.69,932.581L1070.69,933.581C1069.623,933.615 1068.823,933.74 1068.29,933.956C1067.756,934.173 1067.398,934.573 1067.215,935.156C1067.031,935.74 1066.94,936.648 1066.94,937.881L1066.94,962.681C1066.94,963.881 1067.031,964.781 1067.215,965.381C1067.398,965.981 1067.756,966.381 1068.29,966.581C1068.823,966.781 1069.623,966.915 1070.69,966.981L1070.69,967.981C1069.756,967.915 1068.581,967.873 1067.165,967.856C1065.748,967.84 1064.306,967.831 1062.84,967.831C1061.24,967.831 1059.74,967.84 1058.34,967.856C1056.94,967.873 1055.806,967.915 1054.94,967.981L1054.94,966.981C1056.073,966.915 1056.931,966.781 1057.515,966.581C1058.098,966.381 1058.49,965.981 1058.69,965.381C1058.89,964.781 1058.99,963.881 1058.99,962.681L1058.99,935.631L1059.34,935.631L1046.94,968.031L1046.14,968.031L1032.64,935.831L1032.64,959.781C1032.64,961.615 1032.74,963.023 1032.94,964.006C1033.14,964.99 1033.581,965.69 1034.265,966.106C1034.948,966.523 1036.023,966.815 1037.49,966.981L1037.49,967.981C1036.856,967.915 1036.023,967.873 1034.99,967.856C1033.956,967.84 1032.99,967.831 1032.09,967.831C1031.323,967.831 1030.54,967.84 1029.74,967.856C1028.94,967.873 1028.273,967.915 1027.74,967.981L1027.74,966.981C1028.806,966.815 1029.606,966.531 1030.14,966.131C1030.673,965.731 1031.031,965.073 1031.215,964.156C1031.398,963.24 1031.49,961.981 1031.49,960.381L1031.49,937.881C1031.49,936.648 1031.398,935.74 1031.215,935.156C1031.031,934.573 1030.665,934.173 1030.115,933.956C1029.565,933.74 1028.773,933.615 1027.74,933.581L1027.74,932.581C1028.273,932.615 1028.94,932.648 1029.74,932.681C1030.54,932.715 1031.323,932.731 1032.09,932.731C1033.523,932.731 1034.931,932.715 1036.315,932.681C1037.698,932.648 1038.923,932.615 1039.99,932.581L1050.49,957.931L1049.24,959.081L1059.29,932.731L1062.84,932.731C1064.306,932.731 1065.748,932.715 1067.165,932.681C1068.581,932.648 1069.756,932.615 1070.69,932.581Z" style="fill-rule:nonzero;"/>
                <path d="M1100.79,932.581C1100.656,934.048 1100.565,935.465 1100.515,936.831C1100.465,938.198 1100.44,939.248 1100.44,939.981C1100.44,940.648 1100.456,941.281 1100.49,941.881C1100.523,942.481 1100.556,942.981 1100.59,943.381L1099.44,943.381C1099.106,940.948 1098.59,939.023 1097.89,937.606C1097.19,936.19 1096.281,935.19 1095.165,934.606C1094.048,934.023 1092.74,933.731 1091.24,933.731L1089.19,933.731C1088.223,933.731 1087.49,933.815 1086.99,933.981C1086.49,934.148 1086.156,934.481 1085.99,934.981C1085.823,935.481 1085.74,936.248 1085.74,937.281L1085.74,963.281C1085.74,964.315 1085.823,965.081 1085.99,965.581C1086.156,966.081 1086.49,966.415 1086.99,966.581C1087.49,966.748 1088.223,966.831 1089.19,966.831L1091.64,966.831C1093.14,966.831 1094.465,966.506 1095.615,965.856C1096.765,965.206 1097.748,964.098 1098.565,962.531C1099.381,960.965 1100.006,958.848 1100.44,956.181L1101.59,956.181C1101.49,957.248 1101.44,958.648 1101.44,960.381C1101.44,961.148 1101.456,962.231 1101.49,963.631C1101.523,965.031 1101.623,966.481 1101.79,967.981C1100.09,967.915 1098.173,967.873 1096.04,967.856C1093.906,967.84 1092.006,967.831 1090.34,967.831L1087.14,967.831C1085.84,967.831 1084.44,967.84 1082.94,967.856C1081.44,967.873 1079.923,967.89 1078.39,967.906C1076.856,967.923 1075.406,967.948 1074.04,967.981L1074.04,966.981C1075.106,966.915 1075.906,966.781 1076.44,966.581C1076.973,966.381 1077.331,965.981 1077.515,965.381C1077.698,964.781 1077.79,963.881 1077.79,962.681L1077.79,937.881C1077.79,936.648 1077.698,935.74 1077.515,935.156C1077.331,934.573 1076.965,934.173 1076.415,933.956C1075.865,933.74 1075.073,933.615 1074.04,933.581L1074.04,932.581C1075.406,932.615 1076.856,932.64 1078.39,932.656C1079.923,932.673 1081.44,932.69 1082.94,932.706C1084.44,932.723 1085.84,932.731 1087.14,932.731L1090.34,932.731C1091.873,932.731 1093.615,932.723 1095.565,932.706C1097.515,932.69 1099.256,932.648 1100.79,932.581ZM1092.99,949.681L1092.99,950.681L1084.24,950.681L1084.24,949.681L1092.99,949.681ZM1094.44,943.081C1094.306,944.981 1094.248,946.431 1094.265,947.431C1094.281,948.431 1094.29,949.348 1094.29,950.181C1094.29,951.015 1094.306,951.931 1094.34,952.931C1094.373,953.931 1094.456,955.381 1094.59,957.281L1093.44,957.281C1093.273,956.115 1092.965,955.031 1092.515,954.031C1092.065,953.031 1091.423,952.223 1090.59,951.606C1089.756,950.99 1088.673,950.681 1087.34,950.681L1087.34,949.681C1088.34,949.681 1089.19,949.473 1089.89,949.056C1090.59,948.64 1091.165,948.09 1091.615,947.406C1092.065,946.723 1092.423,945.998 1092.69,945.231C1092.956,944.465 1093.156,943.748 1093.29,943.081L1094.44,943.081Z" style="fill-rule:nonzero;"/>
                <path d="M1138.69,932.581L1138.69,933.581C1137.623,933.715 1136.823,933.99 1136.29,934.406C1135.756,934.823 1135.398,935.481 1135.215,936.381C1135.031,937.281 1134.94,938.548 1134.94,940.181L1134.94,968.081C1134.54,968.048 1134.131,968.031 1133.715,968.031C1133.298,968.031 1132.856,968.048 1132.39,968.081L1110.69,940.581L1110.69,959.781C1110.69,961.615 1110.79,963.023 1110.99,964.006C1111.19,964.99 1111.631,965.69 1112.315,966.106C1112.998,966.523 1114.073,966.815 1115.54,966.981L1115.54,967.981C1114.906,967.915 1114.073,967.873 1113.04,967.856C1112.006,967.84 1111.04,967.831 1110.14,967.831C1109.373,967.831 1108.59,967.84 1107.79,967.856C1106.99,967.873 1106.323,967.915 1105.79,967.981L1105.79,966.981C1106.856,966.815 1107.656,966.531 1108.19,966.131C1108.723,965.731 1109.081,965.073 1109.265,964.156C1109.448,963.24 1109.54,961.981 1109.54,960.381L1109.54,937.881C1109.54,936.648 1109.448,935.74 1109.265,935.156C1109.081,934.573 1108.715,934.173 1108.165,933.956C1107.615,933.74 1106.823,933.615 1105.79,933.581L1105.79,932.581C1106.323,932.615 1106.99,932.648 1107.79,932.681C1108.59,932.715 1109.373,932.731 1110.14,932.731C1110.94,932.731 1111.706,932.715 1112.44,932.681C1113.173,932.648 1113.84,932.615 1114.44,932.581L1133.79,956.431L1133.79,940.781C1133.79,938.948 1133.69,937.54 1133.49,936.556C1133.29,935.573 1132.848,934.865 1132.165,934.431C1131.481,933.998 1130.406,933.715 1128.94,933.581L1128.94,932.581C1129.573,932.615 1130.406,932.648 1131.44,932.681C1132.473,932.715 1133.44,932.731 1134.34,932.731C1135.14,932.731 1135.931,932.715 1136.715,932.681C1137.498,932.648 1138.156,932.615 1138.69,932.581Z" style="fill-rule:nonzero;"/>
                <path d="M1154.34,931.931C1156.306,931.931 1157.823,932.14 1158.89,932.556C1159.956,932.973 1160.873,933.415 1161.64,933.881C1162.04,934.115 1162.365,934.29 1162.615,934.406C1162.865,934.523 1163.106,934.581 1163.34,934.581C1163.673,934.581 1163.915,934.398 1164.065,934.031C1164.215,933.665 1164.34,933.115 1164.44,932.381L1165.59,932.381C1165.556,933.015 1165.515,933.773 1165.465,934.656C1165.415,935.54 1165.381,936.698 1165.365,938.131C1165.348,939.565 1165.34,941.448 1165.34,943.781L1164.19,943.781C1164.056,942.048 1163.656,940.365 1162.99,938.731C1162.323,937.098 1161.381,935.756 1160.165,934.706C1158.948,933.656 1157.456,933.131 1155.69,933.131C1154.09,933.131 1152.773,933.581 1151.74,934.481C1150.706,935.381 1150.19,936.631 1150.19,938.231C1150.19,939.565 1150.523,940.706 1151.19,941.656C1151.856,942.606 1152.831,943.531 1154.115,944.431C1155.398,945.331 1156.956,946.415 1158.79,947.681C1160.39,948.715 1161.823,949.748 1163.09,950.781C1164.356,951.815 1165.373,952.981 1166.14,954.281C1166.906,955.581 1167.29,957.131 1167.29,958.931C1167.29,961.131 1166.715,962.948 1165.565,964.381C1164.415,965.815 1162.906,966.89 1161.04,967.606C1159.173,968.323 1157.123,968.681 1154.89,968.681C1152.823,968.681 1151.173,968.481 1149.94,968.081C1148.706,967.681 1147.673,967.265 1146.84,966.831C1146.106,966.365 1145.54,966.131 1145.14,966.131C1144.806,966.131 1144.565,966.315 1144.415,966.681C1144.265,967.048 1144.14,967.598 1144.04,968.331L1142.89,968.331C1142.956,967.531 1142.998,966.598 1143.015,965.531C1143.031,964.465 1143.048,963.073 1143.065,961.356C1143.081,959.64 1143.09,957.465 1143.09,954.831L1144.24,954.831C1144.373,957.031 1144.748,959.09 1145.365,961.006C1145.981,962.923 1146.931,964.465 1148.215,965.631C1149.498,966.798 1151.206,967.381 1153.34,967.381C1154.506,967.381 1155.548,967.173 1156.465,966.756C1157.381,966.34 1158.123,965.715 1158.69,964.881C1159.256,964.048 1159.54,963.015 1159.54,961.781C1159.54,960.381 1159.215,959.165 1158.565,958.131C1157.915,957.098 1157.031,956.131 1155.915,955.231C1154.798,954.331 1153.506,953.415 1152.04,952.481C1150.473,951.448 1149.006,950.415 1147.64,949.381C1146.273,948.348 1145.181,947.165 1144.365,945.831C1143.548,944.498 1143.14,942.915 1143.14,941.081C1143.14,938.981 1143.665,937.256 1144.715,935.906C1145.765,934.556 1147.148,933.556 1148.865,932.906C1150.581,932.256 1152.406,931.931 1154.34,931.931Z" style="fill-rule:nonzero;"/>
            </g>
            <g transform="matrix(2.20659,0,0,2.20659,-1094.174366,-1949.221004)">
                <path d="M965.337,1325.274C967.537,1325.274 969.345,1325.599 970.762,1326.249C972.179,1326.899 973.437,1327.657 974.537,1328.524C975.204,1329.024 975.712,1329.082 976.062,1328.699C976.412,1328.316 976.654,1327.407 976.787,1325.974L977.937,1325.974C977.87,1327.207 977.82,1328.707 977.787,1330.474C977.754,1332.241 977.737,1334.574 977.737,1337.474L976.587,1337.474C976.354,1336.041 976.137,1334.899 975.937,1334.049C975.737,1333.199 975.495,1332.474 975.212,1331.874C974.929,1331.274 974.554,1330.674 974.087,1330.074C973.054,1328.707 971.754,1327.716 970.187,1327.099C968.62,1326.482 966.97,1326.174 965.237,1326.174C963.604,1326.174 962.129,1326.582 960.812,1327.399C959.495,1328.216 958.362,1329.391 957.412,1330.924C956.462,1332.457 955.729,1334.307 955.212,1336.474C954.695,1338.641 954.437,1341.074 954.437,1343.774C954.437,1346.574 954.72,1349.049 955.287,1351.199C955.854,1353.349 956.645,1355.157 957.662,1356.624C958.679,1358.091 959.879,1359.199 961.262,1359.949C962.645,1360.699 964.137,1361.074 965.737,1361.074C967.237,1361.074 968.804,1360.774 970.437,1360.174C972.07,1359.574 973.354,1358.607 974.287,1357.274C975.02,1356.307 975.529,1355.257 975.812,1354.124C976.095,1352.991 976.354,1351.407 976.587,1349.374L977.737,1349.374C977.737,1352.407 977.754,1354.849 977.787,1356.699C977.82,1358.549 977.87,1360.107 977.937,1361.374L976.787,1361.374C976.654,1359.941 976.429,1359.041 976.112,1358.674C975.795,1358.307 975.27,1358.357 974.537,1358.824C973.304,1359.691 971.995,1360.449 970.612,1361.099C969.229,1361.749 967.454,1362.074 965.287,1362.074C962.12,1362.074 959.345,1361.357 956.962,1359.924C954.579,1358.491 952.729,1356.424 951.412,1353.724C950.095,1351.024 949.437,1347.774 949.437,1343.974C949.437,1340.241 950.12,1336.974 951.487,1334.174C952.854,1331.374 954.729,1329.191 957.112,1327.624C959.495,1326.057 962.237,1325.274 965.337,1325.274Z" style="fill-rule:nonzero;"/>
                <path d="M998.187,1334.924C999.087,1334.924 999.879,1335.107 1000.562,1335.474C1001.245,1335.841 1001.779,1336.316 1002.162,1336.899C1002.545,1337.482 1002.737,1338.141 1002.737,1338.874C1002.737,1339.707 1002.479,1340.441 1001.962,1341.074C1001.445,1341.707 1000.754,1342.024 999.887,1342.024C999.187,1342.024 998.57,1341.799 998.037,1341.349C997.504,1340.899 997.237,1340.257 997.237,1339.424C997.237,1338.791 997.412,1338.249 997.762,1337.799C998.112,1337.349 998.504,1336.991 998.937,1336.724C998.704,1336.391 998.354,1336.224 997.887,1336.224C996.854,1336.224 995.904,1336.532 995.037,1337.149C994.17,1337.766 993.437,1338.557 992.837,1339.524C992.237,1340.491 991.77,1341.516 991.437,1342.599C991.104,1343.682 990.937,1344.691 990.937,1345.624L990.937,1356.224C990.937,1357.857 991.412,1358.949 992.362,1359.499C993.312,1360.049 994.604,1360.324 996.237,1360.324L996.237,1361.374C995.47,1361.341 994.387,1361.299 992.987,1361.249C991.587,1361.199 990.104,1361.174 988.537,1361.174C987.404,1361.174 986.279,1361.199 985.162,1361.249C984.045,1361.299 983.204,1361.341 982.637,1361.374L982.637,1360.324C984.004,1360.324 984.979,1360.074 985.562,1359.574C986.145,1359.074 986.437,1358.124 986.437,1356.724L986.437,1341.074C986.437,1339.574 986.17,1338.466 985.637,1337.749C985.104,1337.032 984.104,1336.674 982.637,1336.674L982.637,1335.624C983.704,1335.724 984.737,1335.774 985.737,1335.774C986.704,1335.774 987.629,1335.716 988.512,1335.599C989.395,1335.482 990.204,1335.307 990.937,1335.074L990.937,1341.324C991.304,1340.357 991.829,1339.382 992.512,1338.399C993.195,1337.416 994.02,1336.591 994.987,1335.924C995.954,1335.257 997.02,1334.924 998.187,1334.924Z" style="fill-rule:nonzero;"/>
                <path d="M1016.037,1334.924C1018.97,1334.924 1021.262,1335.816 1022.912,1337.599C1024.562,1339.382 1025.387,1342.157 1025.387,1345.924L1007.737,1345.924L1007.687,1344.974L1020.587,1344.974C1020.654,1343.341 1020.52,1341.832 1020.187,1340.449C1019.854,1339.066 1019.329,1337.957 1018.612,1337.124C1017.895,1336.291 1016.97,1335.874 1015.837,1335.874C1014.304,1335.874 1012.945,1336.641 1011.762,1338.174C1010.579,1339.707 1009.87,1342.141 1009.637,1345.474L1009.787,1345.674C1009.72,1346.174 1009.67,1346.724 1009.637,1347.324C1009.604,1347.924 1009.587,1348.524 1009.587,1349.124C1009.587,1351.391 1009.954,1353.341 1010.687,1354.974C1011.42,1356.607 1012.379,1357.849 1013.562,1358.699C1014.745,1359.549 1015.97,1359.974 1017.237,1359.974C1018.237,1359.974 1019.187,1359.816 1020.087,1359.499C1020.987,1359.182 1021.82,1358.657 1022.587,1357.924C1023.354,1357.191 1024.02,1356.207 1024.587,1354.974L1025.587,1355.374C1025.22,1356.474 1024.62,1357.541 1023.787,1358.574C1022.954,1359.607 1021.904,1360.449 1020.637,1361.099C1019.37,1361.749 1017.904,1362.074 1016.237,1362.074C1013.837,1362.074 1011.779,1361.524 1010.062,1360.424C1008.345,1359.324 1007.029,1357.799 1006.112,1355.849C1005.195,1353.899 1004.737,1351.657 1004.737,1349.124C1004.737,1346.191 1005.204,1343.666 1006.137,1341.549C1007.07,1339.432 1008.387,1337.799 1010.087,1336.649C1011.787,1335.499 1013.77,1334.924 1016.037,1334.924Z" style="fill-rule:nonzero;"/>
                <path d="M1036.287,1361.724C1034.92,1361.724 1033.737,1361.466 1032.737,1360.949C1031.737,1360.432 1030.979,1359.707 1030.462,1358.774C1029.945,1357.841 1029.687,1356.757 1029.687,1355.524C1029.687,1354.057 1030.029,1352.857 1030.712,1351.924C1031.395,1350.991 1032.27,1350.241 1033.337,1349.674C1034.404,1349.107 1035.529,1348.632 1036.712,1348.249C1037.895,1347.866 1039.02,1347.499 1040.087,1347.149C1041.154,1346.799 1042.029,1346.391 1042.712,1345.924C1043.395,1345.457 1043.737,1344.841 1043.737,1344.074L1043.737,1340.974C1043.737,1339.574 1043.529,1338.507 1043.112,1337.774C1042.695,1337.041 1042.137,1336.549 1041.437,1336.299C1040.737,1336.049 1039.954,1335.924 1039.087,1335.924C1038.254,1335.924 1037.362,1336.041 1036.412,1336.274C1035.462,1336.507 1034.704,1336.991 1034.137,1337.724C1034.77,1337.857 1035.32,1338.191 1035.787,1338.724C1036.254,1339.257 1036.487,1339.941 1036.487,1340.774C1036.487,1341.607 1036.22,1342.266 1035.687,1342.749C1035.154,1343.232 1034.47,1343.474 1033.637,1343.474C1032.67,1343.474 1031.962,1343.166 1031.512,1342.549C1031.062,1341.932 1030.837,1341.241 1030.837,1340.474C1030.837,1339.607 1031.054,1338.907 1031.487,1338.374C1031.92,1337.841 1032.47,1337.341 1033.137,1336.874C1033.904,1336.341 1034.895,1335.882 1036.112,1335.499C1037.329,1335.116 1038.704,1334.924 1040.237,1334.924C1041.604,1334.924 1042.77,1335.082 1043.737,1335.399C1044.704,1335.716 1045.504,1336.174 1046.137,1336.774C1047.004,1337.574 1047.57,1338.549 1047.837,1339.699C1048.104,1340.849 1048.237,1342.224 1048.237,1343.824L1048.237,1357.724C1048.237,1358.557 1048.362,1359.157 1048.612,1359.524C1048.862,1359.891 1049.254,1360.074 1049.787,1360.074C1050.154,1360.074 1050.504,1359.991 1050.837,1359.824C1051.17,1359.657 1051.57,1359.391 1052.037,1359.024L1052.587,1359.874C1051.887,1360.407 1051.22,1360.849 1050.587,1361.199C1049.954,1361.549 1049.104,1361.724 1048.037,1361.724C1047.07,1361.724 1046.27,1361.557 1045.637,1361.224C1045.004,1360.891 1044.529,1360.399 1044.212,1359.749C1043.895,1359.099 1043.737,1358.274 1043.737,1357.274C1042.837,1358.774 1041.762,1359.891 1040.512,1360.624C1039.262,1361.357 1037.854,1361.724 1036.287,1361.724ZM1038.087,1359.724C1039.187,1359.724 1040.212,1359.407 1041.162,1358.774C1042.112,1358.141 1042.97,1357.191 1043.737,1355.924L1043.737,1346.124C1043.337,1346.691 1042.754,1347.166 1041.987,1347.549C1041.22,1347.932 1040.387,1348.316 1039.487,1348.699C1038.587,1349.082 1037.729,1349.532 1036.912,1350.049C1036.095,1350.566 1035.42,1351.241 1034.887,1352.074C1034.354,1352.907 1034.087,1353.991 1034.087,1355.324C1034.087,1356.657 1034.445,1357.724 1035.162,1358.524C1035.879,1359.324 1036.854,1359.724 1038.087,1359.724Z" style="fill-rule:nonzero;"/>
                <path d="M1062.137,1327.324L1062.137,1335.674L1069.537,1335.674L1069.537,1336.674L1062.137,1336.674L1062.137,1356.024C1062.137,1357.591 1062.42,1358.691 1062.987,1359.324C1063.554,1359.957 1064.337,1360.274 1065.337,1360.274C1066.337,1360.274 1067.204,1359.866 1067.937,1359.049C1068.67,1358.232 1069.304,1356.857 1069.837,1354.924L1070.837,1355.174C1070.504,1357.107 1069.845,1358.741 1068.862,1360.074C1067.879,1361.407 1066.37,1362.074 1064.337,1362.074C1063.204,1362.074 1062.27,1361.932 1061.537,1361.649C1060.804,1361.366 1060.154,1360.957 1059.587,1360.424C1058.854,1359.657 1058.345,1358.741 1058.062,1357.674C1057.779,1356.607 1057.637,1355.191 1057.637,1353.424L1057.637,1336.674L1052.837,1336.674L1052.837,1335.674L1057.637,1335.674L1057.637,1328.024C1058.47,1327.991 1059.27,1327.924 1060.037,1327.824C1060.804,1327.724 1061.504,1327.557 1062.137,1327.324Z" style="fill-rule:nonzero;"/>
                <path d="M1077.487,1323.124C1078.354,1323.124 1079.104,1323.441 1079.737,1324.074C1080.37,1324.707 1080.687,1325.457 1080.687,1326.324C1080.687,1327.191 1080.37,1327.941 1079.737,1328.574C1079.104,1329.207 1078.354,1329.524 1077.487,1329.524C1076.62,1329.524 1075.87,1329.207 1075.237,1328.574C1074.604,1327.941 1074.287,1327.191 1074.287,1326.324C1074.287,1325.457 1074.604,1324.707 1075.237,1324.074C1075.87,1323.441 1076.62,1323.124 1077.487,1323.124ZM1080.087,1335.074L1080.087,1356.724C1080.087,1358.124 1080.379,1359.074 1080.962,1359.574C1081.545,1360.074 1082.52,1360.324 1083.887,1360.324L1083.887,1361.374C1083.32,1361.341 1082.462,1361.299 1081.312,1361.249C1080.162,1361.199 1079.004,1361.174 1077.837,1361.174C1076.704,1361.174 1075.554,1361.199 1074.387,1361.249C1073.22,1361.299 1072.354,1361.341 1071.787,1361.374L1071.787,1360.324C1073.154,1360.324 1074.129,1360.074 1074.712,1359.574C1075.295,1359.074 1075.587,1358.124 1075.587,1356.724L1075.587,1341.074C1075.587,1339.574 1075.32,1338.466 1074.787,1337.749C1074.254,1337.032 1073.254,1336.674 1071.787,1336.674L1071.787,1335.624C1072.854,1335.724 1073.887,1335.774 1074.887,1335.774C1075.854,1335.774 1076.779,1335.716 1077.662,1335.599C1078.545,1335.482 1079.354,1335.307 1080.087,1335.074Z" style="fill-rule:nonzero;"/>
                <path d="M1109.287,1335.624L1109.287,1336.624C1108.654,1336.691 1108.07,1336.974 1107.537,1337.474C1107.004,1337.974 1106.504,1338.857 1106.037,1340.124L1097.837,1361.624C1097.704,1361.624 1097.154,1361.624 1096.987,1361.624L1087.787,1339.474C1087.254,1338.174 1086.729,1337.382 1086.212,1337.099C1085.695,1336.816 1085.254,1336.674 1084.887,1336.674L1084.887,1335.624C1085.554,1335.657 1086.245,1335.699 1086.962,1335.749C1087.679,1335.799 1088.454,1335.824 1089.287,1335.824C1090.32,1335.824 1091.412,1335.807 1092.562,1335.774C1093.712,1335.741 1094.787,1335.691 1095.787,1335.624L1095.787,1336.674C1094.954,1336.674 1094.212,1336.732 1093.562,1336.849C1092.912,1336.966 1092.495,1337.291 1092.312,1337.824C1092.129,1338.357 1092.287,1339.274 1092.787,1340.574L1099.037,1356.024L1098.737,1356.274L1104.437,1341.324C1104.87,1340.224 1105.045,1339.349 1104.962,1338.699C1104.879,1338.049 1104.545,1337.557 1103.962,1337.224C1103.379,1336.891 1102.487,1336.691 1101.287,1336.624L1101.287,1335.624C1101.887,1335.657 1102.404,1335.682 1102.837,1335.699C1103.27,1335.716 1103.695,1335.732 1104.112,1335.749C1104.529,1335.766 1104.987,1335.774 1105.487,1335.774C1106.254,1335.774 1106.945,1335.757 1107.562,1335.724C1108.179,1335.691 1108.754,1335.657 1109.287,1335.624Z" style="fill-rule:nonzero;"/>
                <path d="M1122.587,1334.924C1125.52,1334.924 1127.812,1335.816 1129.462,1337.599C1131.112,1339.382 1131.937,1342.157 1131.937,1345.924L1114.287,1345.924L1114.237,1344.974L1127.137,1344.974C1127.204,1343.341 1127.07,1341.832 1126.737,1340.449C1126.404,1339.066 1125.879,1337.957 1125.162,1337.124C1124.445,1336.291 1123.52,1335.874 1122.387,1335.874C1120.854,1335.874 1119.495,1336.641 1118.312,1338.174C1117.129,1339.707 1116.42,1342.141 1116.187,1345.474L1116.337,1345.674C1116.27,1346.174 1116.22,1346.724 1116.187,1347.324C1116.154,1347.924 1116.137,1348.524 1116.137,1349.124C1116.137,1351.391 1116.504,1353.341 1117.237,1354.974C1117.97,1356.607 1118.929,1357.849 1120.112,1358.699C1121.295,1359.549 1122.52,1359.974 1123.787,1359.974C1124.787,1359.974 1125.737,1359.816 1126.637,1359.499C1127.537,1359.182 1128.37,1358.657 1129.137,1357.924C1129.904,1357.191 1130.57,1356.207 1131.137,1354.974L1132.137,1355.374C1131.77,1356.474 1131.17,1357.541 1130.337,1358.574C1129.504,1359.607 1128.454,1360.449 1127.187,1361.099C1125.92,1361.749 1124.454,1362.074 1122.787,1362.074C1120.387,1362.074 1118.329,1361.524 1116.612,1360.424C1114.895,1359.324 1113.579,1357.799 1112.662,1355.849C1111.745,1353.899 1111.287,1351.657 1111.287,1349.124C1111.287,1346.191 1111.754,1343.666 1112.687,1341.549C1113.62,1339.432 1114.937,1337.799 1116.637,1336.649C1118.337,1335.499 1120.32,1334.924 1122.587,1334.924Z" style="fill-rule:nonzero;"/>
                <path d="M1165.287,1325.274C1167.487,1325.274 1169.295,1325.599 1170.712,1326.249C1172.129,1326.899 1173.387,1327.657 1174.487,1328.524C1175.154,1329.024 1175.662,1329.082 1176.012,1328.699C1176.362,1328.316 1176.604,1327.407 1176.737,1325.974L1177.887,1325.974C1177.82,1327.207 1177.77,1328.707 1177.737,1330.474C1177.704,1332.241 1177.687,1334.574 1177.687,1337.474L1176.537,1337.474C1176.304,1336.041 1176.087,1334.899 1175.887,1334.049C1175.687,1333.199 1175.445,1332.474 1175.162,1331.874C1174.879,1331.274 1174.504,1330.674 1174.037,1330.074C1173.004,1328.707 1171.704,1327.716 1170.137,1327.099C1168.57,1326.482 1166.92,1326.174 1165.187,1326.174C1163.554,1326.174 1162.079,1326.582 1160.762,1327.399C1159.445,1328.216 1158.312,1329.391 1157.362,1330.924C1156.412,1332.457 1155.679,1334.307 1155.162,1336.474C1154.645,1338.641 1154.387,1341.074 1154.387,1343.774C1154.387,1346.574 1154.67,1349.049 1155.237,1351.199C1155.804,1353.349 1156.595,1355.157 1157.612,1356.624C1158.629,1358.091 1159.829,1359.199 1161.212,1359.949C1162.595,1360.699 1164.087,1361.074 1165.687,1361.074C1167.187,1361.074 1168.754,1360.774 1170.387,1360.174C1172.02,1359.574 1173.304,1358.607 1174.237,1357.274C1174.97,1356.307 1175.479,1355.257 1175.762,1354.124C1176.045,1352.991 1176.304,1351.407 1176.537,1349.374L1177.687,1349.374C1177.687,1352.407 1177.704,1354.849 1177.737,1356.699C1177.77,1358.549 1177.82,1360.107 1177.887,1361.374L1176.737,1361.374C1176.604,1359.941 1176.379,1359.041 1176.062,1358.674C1175.745,1358.307 1175.22,1358.357 1174.487,1358.824C1173.254,1359.691 1171.945,1360.449 1170.562,1361.099C1169.179,1361.749 1167.404,1362.074 1165.237,1362.074C1162.07,1362.074 1159.295,1361.357 1156.912,1359.924C1154.529,1358.491 1152.679,1356.424 1151.362,1353.724C1150.045,1351.024 1149.387,1347.774 1149.387,1343.974C1149.387,1340.241 1150.07,1336.974 1151.437,1334.174C1152.804,1331.374 1154.679,1329.191 1157.062,1327.624C1159.445,1326.057 1162.187,1325.274 1165.287,1325.274Z" style="fill-rule:nonzero;"/>
                <path d="M1194.837,1334.924C1196.97,1334.924 1198.887,1335.391 1200.587,1336.324C1202.287,1337.257 1203.645,1338.724 1204.662,1340.724C1205.679,1342.724 1206.187,1345.324 1206.187,1348.524C1206.187,1351.724 1205.679,1354.316 1204.662,1356.299C1203.645,1358.282 1202.287,1359.741 1200.587,1360.674C1198.887,1361.607 1196.97,1362.074 1194.837,1362.074C1192.737,1362.074 1190.829,1361.607 1189.112,1360.674C1187.395,1359.741 1186.029,1358.282 1185.012,1356.299C1183.995,1354.316 1183.487,1351.724 1183.487,1348.524C1183.487,1345.324 1183.995,1342.724 1185.012,1340.724C1186.029,1338.724 1187.395,1337.257 1189.112,1336.324C1190.829,1335.391 1192.737,1334.924 1194.837,1334.924ZM1194.837,1335.924C1192.937,1335.924 1191.379,1336.907 1190.162,1338.874C1188.945,1340.841 1188.337,1344.057 1188.337,1348.524C1188.337,1352.991 1188.945,1356.199 1190.162,1358.149C1191.379,1360.099 1192.937,1361.074 1194.837,1361.074C1196.737,1361.074 1198.295,1360.099 1199.512,1358.149C1200.729,1356.199 1201.337,1352.991 1201.337,1348.524C1201.337,1344.057 1200.729,1340.841 1199.512,1338.874C1198.295,1336.907 1196.737,1335.924 1194.837,1335.924Z" style="fill-rule:nonzero;"/>
                <path d="M1232.687,1335.074L1232.687,1355.974C1232.687,1357.474 1232.962,1358.582 1233.512,1359.299C1234.062,1360.016 1235.054,1360.374 1236.487,1360.374L1236.487,1361.424C1235.454,1361.324 1234.42,1361.274 1233.387,1361.274C1232.42,1361.274 1231.495,1361.324 1230.612,1361.424C1229.729,1361.524 1228.92,1361.707 1228.187,1361.974L1228.187,1356.074C1227.354,1358.241 1226.179,1359.782 1224.662,1360.699C1223.145,1361.616 1221.587,1362.074 1219.987,1362.074C1218.82,1362.074 1217.804,1361.907 1216.937,1361.574C1216.07,1361.241 1215.354,1360.774 1214.787,1360.174C1214.154,1359.507 1213.72,1358.641 1213.487,1357.574C1213.254,1356.507 1213.137,1355.191 1213.137,1353.624L1213.137,1341.074C1213.137,1339.574 1212.87,1338.466 1212.337,1337.749C1211.804,1337.032 1210.804,1336.674 1209.337,1336.674L1209.337,1335.624C1210.404,1335.724 1211.437,1335.774 1212.437,1335.774C1213.404,1335.774 1214.329,1335.716 1215.212,1335.599C1216.095,1335.482 1216.904,1335.307 1217.637,1335.074L1217.637,1354.724C1217.637,1355.757 1217.704,1356.707 1217.837,1357.574C1217.97,1358.441 1218.304,1359.141 1218.837,1359.674C1219.37,1360.207 1220.237,1360.474 1221.437,1360.474C1222.737,1360.474 1223.895,1360.074 1224.912,1359.274C1225.929,1358.474 1226.729,1357.391 1227.312,1356.024C1227.895,1354.657 1228.187,1353.124 1228.187,1351.424L1228.187,1341.074C1228.187,1339.574 1227.92,1338.466 1227.387,1337.749C1226.854,1337.032 1225.854,1336.674 1224.387,1336.674L1224.387,1335.624C1225.454,1335.724 1226.487,1335.774 1227.487,1335.774C1228.454,1335.774 1229.379,1335.716 1230.262,1335.599C1231.145,1335.482 1231.954,1335.307 1232.687,1335.074Z" style="fill-rule:nonzero;"/>
                <path d="M1255.837,1334.924C1257.104,1334.924 1258.162,1335.091 1259.012,1335.424C1259.862,1335.757 1260.57,1336.224 1261.137,1336.824C1261.77,1337.491 1262.22,1338.324 1262.487,1339.324C1262.754,1340.324 1262.887,1341.674 1262.887,1343.374L1262.887,1356.724C1262.887,1358.124 1263.179,1359.074 1263.762,1359.574C1264.345,1360.074 1265.32,1360.324 1266.687,1360.324L1266.687,1361.374C1266.12,1361.341 1265.254,1361.299 1264.087,1361.249C1262.92,1361.199 1261.787,1361.174 1260.687,1361.174C1259.587,1361.174 1258.512,1361.199 1257.462,1361.249C1256.412,1361.299 1255.62,1361.341 1255.087,1361.374L1255.087,1360.324C1256.287,1360.324 1257.137,1360.074 1257.637,1359.574C1258.137,1359.074 1258.387,1358.124 1258.387,1356.724L1258.387,1342.274C1258.387,1341.241 1258.304,1340.291 1258.137,1339.424C1257.97,1338.557 1257.595,1337.857 1257.012,1337.324C1256.429,1336.791 1255.537,1336.524 1254.337,1336.524C1252.937,1336.524 1251.712,1336.924 1250.662,1337.724C1249.612,1338.524 1248.795,1339.616 1248.212,1340.999C1247.629,1342.382 1247.337,1343.924 1247.337,1345.624L1247.337,1356.724C1247.337,1358.124 1247.587,1359.074 1248.087,1359.574C1248.587,1360.074 1249.437,1360.324 1250.637,1360.324L1250.637,1361.374C1250.104,1361.341 1249.312,1361.299 1248.262,1361.249C1247.212,1361.199 1246.137,1361.174 1245.037,1361.174C1243.937,1361.174 1242.804,1361.199 1241.637,1361.249C1240.47,1361.299 1239.604,1361.341 1239.037,1361.374L1239.037,1360.324C1240.404,1360.324 1241.379,1360.074 1241.962,1359.574C1242.545,1359.074 1242.837,1358.124 1242.837,1356.724L1242.837,1341.074C1242.837,1339.574 1242.57,1338.466 1242.037,1337.749C1241.504,1337.032 1240.504,1336.674 1239.037,1336.674L1239.037,1335.624C1240.104,1335.724 1241.137,1335.774 1242.137,1335.774C1243.104,1335.774 1244.029,1335.716 1244.912,1335.599C1245.795,1335.482 1246.604,1335.307 1247.337,1335.074L1247.337,1340.974C1248.204,1338.707 1249.412,1337.132 1250.962,1336.249C1252.512,1335.366 1254.137,1334.924 1255.837,1334.924Z" style="fill-rule:nonzero;"/>
                <path d="M1277.837,1334.924C1279.17,1334.924 1280.304,1335.141 1281.237,1335.574C1282.17,1336.007 1282.854,1336.407 1283.287,1336.774C1284.387,1337.674 1285.054,1337.074 1285.287,1334.974L1286.437,1334.974C1286.37,1335.907 1286.32,1337.016 1286.287,1338.299C1286.254,1339.582 1286.237,1341.307 1286.237,1343.474L1285.087,1343.474C1284.887,1342.241 1284.545,1341.041 1284.062,1339.874C1283.579,1338.707 1282.87,1337.749 1281.937,1336.999C1281.004,1336.249 1279.787,1335.874 1278.287,1335.874C1277.12,1335.874 1276.145,1336.199 1275.362,1336.849C1274.579,1337.499 1274.187,1338.457 1274.187,1339.724C1274.187,1340.724 1274.487,1341.582 1275.087,1342.299C1275.687,1343.016 1276.47,1343.682 1277.437,1344.299C1278.404,1344.916 1279.454,1345.591 1280.587,1346.324C1281.854,1347.124 1283.004,1347.941 1284.037,1348.774C1285.07,1349.607 1285.895,1350.524 1286.512,1351.524C1287.129,1352.524 1287.437,1353.707 1287.437,1355.074C1287.437,1356.607 1287.037,1357.891 1286.237,1358.924C1285.437,1359.957 1284.395,1360.741 1283.112,1361.274C1281.829,1361.807 1280.42,1362.074 1278.887,1362.074C1278.154,1362.074 1277.462,1362.016 1276.812,1361.899C1276.162,1361.782 1275.537,1361.607 1274.937,1361.374C1274.604,1361.207 1274.262,1361.007 1273.912,1360.774C1273.562,1360.541 1273.22,1360.291 1272.887,1360.024C1272.554,1359.757 1272.254,1359.766 1271.987,1360.049C1271.72,1360.332 1271.52,1360.891 1271.387,1361.724L1270.237,1361.724C1270.304,1360.657 1270.354,1359.357 1270.387,1357.824C1270.42,1356.291 1270.437,1354.257 1270.437,1351.724L1271.587,1351.724C1271.82,1353.591 1272.154,1355.224 1272.587,1356.624C1273.02,1358.024 1273.704,1359.116 1274.637,1359.899C1275.57,1360.682 1276.87,1361.074 1278.537,1361.074C1279.204,1361.074 1279.879,1360.924 1280.562,1360.624C1281.245,1360.324 1281.82,1359.824 1282.287,1359.124C1282.754,1358.424 1282.987,1357.491 1282.987,1356.324C1282.987,1354.857 1282.454,1353.657 1281.387,1352.724C1280.32,1351.791 1278.97,1350.807 1277.337,1349.774C1276.137,1349.007 1275.012,1348.241 1273.962,1347.474C1272.912,1346.707 1272.062,1345.841 1271.412,1344.874C1270.762,1343.907 1270.437,1342.741 1270.437,1341.374C1270.437,1339.874 1270.779,1338.649 1271.462,1337.699C1272.145,1336.749 1273.054,1336.049 1274.187,1335.599C1275.32,1335.149 1276.537,1334.924 1277.837,1334.924Z" style="fill-rule:nonzero;"/>
                <path d="M1303.387,1334.924C1306.32,1334.924 1308.612,1335.816 1310.262,1337.599C1311.912,1339.382 1312.737,1342.157 1312.737,1345.924L1295.087,1345.924L1295.037,1344.974L1307.937,1344.974C1308.004,1343.341 1307.87,1341.832 1307.537,1340.449C1307.204,1339.066 1306.679,1337.957 1305.962,1337.124C1305.245,1336.291 1304.32,1335.874 1303.187,1335.874C1301.654,1335.874 1300.295,1336.641 1299.112,1338.174C1297.929,1339.707 1297.22,1342.141 1296.987,1345.474L1297.137,1345.674C1297.07,1346.174 1297.02,1346.724 1296.987,1347.324C1296.954,1347.924 1296.937,1348.524 1296.937,1349.124C1296.937,1351.391 1297.304,1353.341 1298.037,1354.974C1298.77,1356.607 1299.729,1357.849 1300.912,1358.699C1302.095,1359.549 1303.32,1359.974 1304.587,1359.974C1305.587,1359.974 1306.537,1359.816 1307.437,1359.499C1308.337,1359.182 1309.17,1358.657 1309.937,1357.924C1310.704,1357.191 1311.37,1356.207 1311.937,1354.974L1312.937,1355.374C1312.57,1356.474 1311.97,1357.541 1311.137,1358.574C1310.304,1359.607 1309.254,1360.449 1307.987,1361.099C1306.72,1361.749 1305.254,1362.074 1303.587,1362.074C1301.187,1362.074 1299.129,1361.524 1297.412,1360.424C1295.695,1359.324 1294.379,1357.799 1293.462,1355.849C1292.545,1353.899 1292.087,1351.657 1292.087,1349.124C1292.087,1346.191 1292.554,1343.666 1293.487,1341.549C1294.42,1339.432 1295.737,1337.799 1297.437,1336.649C1299.137,1335.499 1301.12,1334.924 1303.387,1334.924Z" style="fill-rule:nonzero;"/>
                <path d="M1324.487,1322.174L1324.487,1356.724C1324.487,1358.124 1324.779,1359.074 1325.362,1359.574C1325.945,1360.074 1326.92,1360.324 1328.287,1360.324L1328.287,1361.374C1327.72,1361.341 1326.862,1361.299 1325.712,1361.249C1324.562,1361.199 1323.404,1361.174 1322.237,1361.174C1321.104,1361.174 1319.954,1361.199 1318.787,1361.249C1317.62,1361.299 1316.754,1361.341 1316.187,1361.374L1316.187,1360.324C1317.554,1360.324 1318.529,1360.074 1319.112,1359.574C1319.695,1359.074 1319.987,1358.124 1319.987,1356.724L1319.987,1328.174C1319.987,1326.674 1319.72,1325.566 1319.187,1324.849C1318.654,1324.132 1317.654,1323.774 1316.187,1323.774L1316.187,1322.724C1317.254,1322.824 1318.287,1322.874 1319.287,1322.874C1320.254,1322.874 1321.179,1322.816 1322.062,1322.699C1322.945,1322.582 1323.754,1322.407 1324.487,1322.174Z" style="fill-rule:nonzero;"/>
                <path d="M1336.537,1323.124C1337.404,1323.124 1338.154,1323.441 1338.787,1324.074C1339.42,1324.707 1339.737,1325.457 1339.737,1326.324C1339.737,1327.191 1339.42,1327.941 1338.787,1328.574C1338.154,1329.207 1337.404,1329.524 1336.537,1329.524C1335.67,1329.524 1334.92,1329.207 1334.287,1328.574C1333.654,1327.941 1333.337,1327.191 1333.337,1326.324C1333.337,1325.457 1333.654,1324.707 1334.287,1324.074C1334.92,1323.441 1335.67,1323.124 1336.537,1323.124ZM1339.137,1335.074L1339.137,1356.724C1339.137,1358.124 1339.429,1359.074 1340.012,1359.574C1340.595,1360.074 1341.57,1360.324 1342.937,1360.324L1342.937,1361.374C1342.37,1361.341 1341.512,1361.299 1340.362,1361.249C1339.212,1361.199 1338.054,1361.174 1336.887,1361.174C1335.754,1361.174 1334.604,1361.199 1333.437,1361.249C1332.27,1361.299 1331.404,1361.341 1330.837,1361.374L1330.837,1360.324C1332.204,1360.324 1333.179,1360.074 1333.762,1359.574C1334.345,1359.074 1334.637,1358.124 1334.637,1356.724L1334.637,1341.074C1334.637,1339.574 1334.37,1338.466 1333.837,1337.749C1333.304,1337.032 1332.304,1336.674 1330.837,1336.674L1330.837,1335.624C1331.904,1335.724 1332.937,1335.774 1333.937,1335.774C1334.904,1335.774 1335.829,1335.716 1336.712,1335.599C1337.595,1335.482 1338.404,1335.307 1339.137,1335.074Z" style="fill-rule:nonzero;"/>
                <path d="M1362.287,1334.924C1363.554,1334.924 1364.612,1335.091 1365.462,1335.424C1366.312,1335.757 1367.02,1336.224 1367.587,1336.824C1368.22,1337.491 1368.67,1338.324 1368.937,1339.324C1369.204,1340.324 1369.337,1341.674 1369.337,1343.374L1369.337,1356.724C1369.337,1358.124 1369.629,1359.074 1370.212,1359.574C1370.795,1360.074 1371.77,1360.324 1373.137,1360.324L1373.137,1361.374C1372.57,1361.341 1371.704,1361.299 1370.537,1361.249C1369.37,1361.199 1368.237,1361.174 1367.137,1361.174C1366.037,1361.174 1364.962,1361.199 1363.912,1361.249C1362.862,1361.299 1362.07,1361.341 1361.537,1361.374L1361.537,1360.324C1362.737,1360.324 1363.587,1360.074 1364.087,1359.574C1364.587,1359.074 1364.837,1358.124 1364.837,1356.724L1364.837,1342.274C1364.837,1341.241 1364.754,1340.291 1364.587,1339.424C1364.42,1338.557 1364.045,1337.857 1363.462,1337.324C1362.879,1336.791 1361.987,1336.524 1360.787,1336.524C1359.387,1336.524 1358.162,1336.924 1357.112,1337.724C1356.062,1338.524 1355.245,1339.616 1354.662,1340.999C1354.079,1342.382 1353.787,1343.924 1353.787,1345.624L1353.787,1356.724C1353.787,1358.124 1354.037,1359.074 1354.537,1359.574C1355.037,1360.074 1355.887,1360.324 1357.087,1360.324L1357.087,1361.374C1356.554,1361.341 1355.762,1361.299 1354.712,1361.249C1353.662,1361.199 1352.587,1361.174 1351.487,1361.174C1350.387,1361.174 1349.254,1361.199 1348.087,1361.249C1346.92,1361.299 1346.054,1361.341 1345.487,1361.374L1345.487,1360.324C1346.854,1360.324 1347.829,1360.074 1348.412,1359.574C1348.995,1359.074 1349.287,1358.124 1349.287,1356.724L1349.287,1341.074C1349.287,1339.574 1349.02,1338.466 1348.487,1337.749C1347.954,1337.032 1346.954,1336.674 1345.487,1336.674L1345.487,1335.624C1346.554,1335.724 1347.587,1335.774 1348.587,1335.774C1349.554,1335.774 1350.479,1335.716 1351.362,1335.599C1352.245,1335.482 1353.054,1335.307 1353.787,1335.074L1353.787,1340.974C1354.654,1338.707 1355.862,1337.132 1357.412,1336.249C1358.962,1335.366 1360.587,1334.924 1362.287,1334.924Z" style="fill-rule:nonzero;"/>
                <path d="M1384.037,1370.774C1382.27,1370.774 1380.604,1370.591 1379.037,1370.224C1377.47,1369.857 1376.212,1369.282 1375.262,1368.499C1374.312,1367.716 1373.837,1366.724 1373.837,1365.524C1373.837,1364.357 1374.304,1363.357 1375.237,1362.524C1376.17,1361.691 1377.437,1361.057 1379.037,1360.624L1379.337,1361.424C1378.604,1361.657 1378.02,1362.124 1377.587,1362.824C1377.154,1363.524 1376.937,1364.307 1376.937,1365.174C1376.937,1366.707 1377.645,1367.882 1379.062,1368.699C1380.479,1369.516 1382.32,1369.924 1384.587,1369.924C1386.087,1369.924 1387.554,1369.732 1388.987,1369.349C1390.42,1368.966 1391.604,1368.324 1392.537,1367.424C1393.47,1366.524 1393.937,1365.341 1393.937,1363.874C1393.937,1362.774 1393.545,1361.866 1392.762,1361.149C1391.979,1360.432 1390.437,1360.074 1388.137,1360.074L1384.437,1360.074C1383.37,1360.074 1382.337,1359.991 1381.337,1359.824C1380.337,1359.657 1379.52,1359.307 1378.887,1358.774C1378.254,1358.241 1377.937,1357.424 1377.937,1356.324C1377.937,1355.191 1378.404,1354.099 1379.337,1353.049C1380.27,1351.999 1381.987,1350.924 1384.487,1349.824L1385.087,1350.274C1383.954,1350.874 1382.97,1351.482 1382.137,1352.099C1381.304,1352.716 1380.887,1353.441 1380.887,1354.274C1380.887,1355.341 1381.687,1355.874 1383.287,1355.874L1389.537,1355.874C1390.937,1355.874 1392.229,1356.074 1393.412,1356.474C1394.595,1356.874 1395.554,1357.507 1396.287,1358.374C1397.02,1359.241 1397.387,1360.374 1397.387,1361.774C1397.387,1363.341 1396.887,1364.807 1395.887,1366.174C1394.887,1367.541 1393.395,1368.649 1391.412,1369.499C1389.429,1370.349 1386.97,1370.774 1384.037,1370.774ZM1384.287,1350.724C1382.654,1350.724 1381.17,1350.449 1379.837,1349.899C1378.504,1349.349 1377.454,1348.491 1376.687,1347.324C1375.92,1346.157 1375.537,1344.657 1375.537,1342.824C1375.537,1340.991 1375.92,1339.491 1376.687,1338.324C1377.454,1337.157 1378.504,1336.299 1379.837,1335.749C1381.17,1335.199 1382.654,1334.924 1384.287,1334.924C1385.954,1334.924 1387.445,1335.199 1388.762,1335.749C1390.079,1336.299 1391.12,1337.157 1391.887,1338.324C1392.654,1339.491 1393.037,1340.991 1393.037,1342.824C1393.037,1344.657 1392.654,1346.157 1391.887,1347.324C1391.12,1348.491 1390.079,1349.349 1388.762,1349.899C1387.445,1350.449 1385.954,1350.724 1384.287,1350.724ZM1384.287,1349.824C1385.554,1349.824 1386.545,1349.324 1387.262,1348.324C1387.979,1347.324 1388.337,1345.491 1388.337,1342.824C1388.337,1340.157 1387.979,1338.324 1387.262,1337.324C1386.545,1336.324 1385.554,1335.824 1384.287,1335.824C1383.054,1335.824 1382.07,1336.324 1381.337,1337.324C1380.604,1338.324 1380.237,1340.157 1380.237,1342.824C1380.237,1345.491 1380.604,1347.324 1381.337,1348.324C1382.07,1349.324 1383.054,1349.824 1384.287,1349.824ZM1391.487,1339.074L1390.587,1338.724C1391.054,1337.591 1391.854,1336.591 1392.987,1335.724C1394.12,1334.857 1395.304,1334.424 1396.537,1334.424C1397.404,1334.424 1398.104,1334.666 1398.637,1335.149C1399.17,1335.632 1399.437,1336.357 1399.437,1337.324C1399.437,1338.357 1399.162,1339.082 1398.612,1339.499C1398.062,1339.916 1397.504,1340.124 1396.937,1340.124C1396.437,1340.124 1395.97,1339.949 1395.537,1339.599C1395.104,1339.249 1394.854,1338.691 1394.787,1337.924C1394.72,1337.157 1394.954,1336.174 1395.487,1334.974L1396.137,1335.124C1394.737,1335.657 1393.737,1336.216 1393.137,1336.799C1392.537,1337.382 1391.987,1338.141 1391.487,1339.074Z" style="fill-rule:nonzero;"/>
            </g>
            <g transform="matrix(1,0,0,1,193.808883,-30.64697)">
                <path d="M807.035,952.734L2792.965,952.734" style="fill:none;stroke:black;stroke-width:11.59px;"/>
            </g>
        </g>
        <g transform="matrix(0.667416,0,0,0.667416,-514.858324,652.949456)">
            <g transform="matrix(1,0,0,1,133.528683,-5.855145)">
                <path d="M2129.625,745.645C2132.321,746.446 2134.805,747.844 2136.891,749.741C2136.891,749.741 2143.319,755.555 2148.798,763.366C2153.428,769.965 2157.075,777.876 2157.896,785.263C2158.924,794.514 2155.287,803.428 2149.145,810.52C2150.451,813.119 2151.75,816.042 2153.015,819.33C2159.394,835.918 2153.348,848.746 2145.373,857.359C2143.156,859.753 2140.784,861.749 2138.618,863.342C2137.856,867.286 2138.463,870.522 2138.708,871.568C2143.675,880.021 2161.763,913.028 2159.182,941.417C2158.044,953.937 2150.63,966.612 2137.319,977.544C2114.719,996.106 2073.172,1010.926 2035.49,1015.757C2007.778,1019.31 1980.904,1025.358 1960.781,1032.748C1949.835,1036.768 1941.069,1040.76 1936.431,1045.398C1932.609,1049.22 1926.916,1061.587 1919.359,1077.829C1898.588,1122.47 1869.786,1194.069 1851.404,1232.583C1827.338,1283.006 1836.992,1318.61 1836.992,1323.19C1836.992,1333.527 1828.6,1341.919 1818.263,1341.919C1807.926,1341.919 1799.534,1333.527 1799.534,1323.19C1799.534,1317.786 1789.202,1275.948 1817.599,1216.449C1835.941,1178.018 1864.672,1106.571 1885.398,1062.027C1895.628,1040.04 1904.771,1024.085 1909.944,1018.912C1917.299,1011.557 1930.512,1003.96 1947.869,997.586C1970.195,989.387 1999.98,982.545 2030.726,978.603C2057.263,975.201 2086.313,966.274 2105.746,954.135C2111.055,950.819 2115.578,947.332 2118.783,943.547C2120.333,941.717 2121.699,940.004 2121.878,938.026C2123.888,915.92 2106.118,890.014 2106.118,890.014C2105.724,889.411 2105.365,888.786 2105.042,888.141C2105.042,888.141 2094.319,868.578 2106.038,843.187C2107.893,839.168 2111.112,835.936 2115.123,834.064L2117.707,831.905C2115.896,827.502 2113.596,824.044 2112.93,823.082C2107.855,819.827 2104.587,814.265 2104.33,808.096C2104.024,800.727 2108.071,793.864 2114.667,790.566L2119.543,786.82C2119.095,786.16 2118.582,785.517 2118.133,784.877C2116.524,782.584 2114.773,780.601 2113.503,779.263C2106.822,776.061 2096.667,769.546 2092.82,758.355C2089.527,748.774 2088.983,733.755 2106.45,713.793C2107.779,712.274 2109.345,710.979 2111.088,709.96C2111.088,709.96 2124.241,702.993 2128.477,693.675C2131.212,687.658 2128.056,681.859 2122.454,677.154C2116.547,672.192 2099.698,665.583 2081.445,655.777C2059.381,643.924 2035.651,628.304 2020.799,608.596C1990.225,568.027 1999.861,545.955 1998.685,533.02C1998.257,528.305 2000.509,521.577 1996.33,509.611C1991.826,496.714 1980.427,478.424 1954.096,450.559C1898.844,392.086 1823.447,328.637 1661.575,351.356C1563.123,365.174 1473.394,411.332 1413.835,467.17C1375.913,502.722 1350.168,541.965 1343.867,579.196C1342.142,589.388 1332.467,596.262 1322.276,594.537C1312.084,592.812 1305.21,583.138 1306.934,572.946C1314.374,528.984 1343.438,481.822 1388.216,439.843C1452.703,379.385 1549.77,329.223 1656.369,314.262C1836.25,289.015 1919.923,359.854 1981.322,424.832C2013.319,458.694 2026.22,481.589 2031.694,497.261C2037.493,513.867 2035.395,523.085 2035.989,529.628C2036.279,532.814 2036.104,536.466 2035.757,540.666C2034.989,549.946 2034.073,563.972 2050.713,586.052C2065.02,605.036 2090.233,618.43 2110.317,628.566C2126.994,636.982 2140.836,643.675 2146.547,648.472C2166.546,665.271 2172.342,687.692 2162.577,709.175C2156.187,723.234 2140.181,735.365 2133.265,740.136C2131.712,742.151 2130.456,744.19 2129.625,745.645ZM2138.793,871.904C2138.797,871.918 2138.799,871.925 2138.799,871.925L2138.586,871.47L2121.794,898.494C2128.671,898.494 2134.995,894.725 2138.267,888.676C2141.102,883.436 2141.251,877.216 2138.793,871.904ZM2138.031,870.431C2137.853,870.122 2137.666,869.816 2137.47,869.516C2137.47,869.516 2137.669,869.832 2138.031,870.431Z"/>
            </g>
            <g transform="matrix(0.996781,-0.080173,0.080173,0.996781,92.036845,104.776848)">
                <path d="M1539.709,908.014C1552.957,828.301 1565.799,738.321 1571.596,660.794C1589.957,415.236 1718.329,382.849 1794.641,457.537C1835.364,497.394 1843.275,569.766 1820.288,648.686C1788.478,757.899 1698.936,879.655 1573.215,934.431C1569.326,957.242 1565.451,979.01 1561.756,999.173C1614.383,990.632 1667.295,1007.481 1691.361,1062.605C1705.488,1094.964 1704.333,1131.729 1689.564,1166.191C1658.225,1239.317 1563.645,1303.318 1430.518,1280.601C1381.028,1320.601 1334.008,1340.473 1334.008,1340.473C1324.469,1344.456 1313.491,1339.945 1309.508,1330.406C1305.526,1320.868 1310.036,1309.89 1319.575,1305.907C1319.575,1305.907 1348.874,1293.841 1384.267,1269.379C1334.971,1253.31 1308.548,1228.686 1297.812,1201.337C1284.357,1167.064 1294.506,1125.815 1321.58,1084.537C1367.44,1014.616 1461.548,943.12 1539.709,908.014ZM1421.045,1240.584C1454.443,1210.864 1486.456,1170.884 1499.837,1120.399C1500.561,1117.003 1505.577,1093.369 1512.702,1056.968C1488.703,1071.911 1470.598,1093.115 1467.872,1117.103C1466.705,1127.374 1457.419,1134.764 1447.148,1133.597C1436.878,1132.43 1429.487,1123.144 1430.654,1112.873C1435.547,1069.811 1474.157,1030.482 1521.551,1010.706C1524.861,992.991 1528.371,973.733 1531.947,953.387C1464.954,988.304 1390.902,1047.143 1352.902,1105.08C1333.593,1134.52 1323.083,1163.206 1332.679,1187.649C1342.175,1211.839 1370.179,1229.421 1421.045,1240.584ZM1554.301,1039.032C1543.943,1093.328 1536.372,1128.672 1536.372,1128.672C1536.312,1128.951 1536.246,1129.229 1536.174,1129.506C1523.772,1176.707 1497.072,1215.926 1467.018,1247.224C1547.741,1252.34 1609.099,1220.224 1640.83,1176.466C1663.315,1145.458 1670.642,1108.767 1657.032,1077.592C1638.55,1035.26 1594.43,1028.352 1554.301,1039.032ZM1580.683,889.346C1684.008,835.217 1757.12,731.611 1784.325,638.211C1802.766,574.899 1801.11,516.282 1768.441,484.307C1749.418,465.689 1727.006,456.438 1704.943,460.892C1681.634,465.597 1659.978,484.908 1642.669,519.53C1625.819,553.232 1613.657,600.632 1608.95,663.587C1603.668,734.218 1592.611,815.074 1580.683,889.346Z"/>
            </g>
            <g transform="matrix(0.983111,-0.183009,0.183009,0.983111,-289.420388,269.691763)">
                <path d="M1587.93,738.322C1587.93,738.322 1761.859,685.611 1800,599.735L1800,906.155C1800,906.155 1722.989,931.527 1724.941,859.313C1726.893,787.1 1787.232,830.739 1800,825.509" style="fill:none;stroke:black;stroke-width:37.46px;stroke-linecap:round;"/>
            </g>
            <g transform="matrix(0.983111,-0.183009,0.183009,0.983111,612.118568,294.436017)">
                <path d="M706.146,549.005L706.146,781.245C706.146,781.245 626.126,783.197 637.836,734.404C649.546,685.611 706.146,709.449 706.146,709.449" style="fill:none;stroke:black;stroke-width:37.46px;stroke-linecap:round;"/>
            </g>
        </g>
    </g>
</svg>
